G04*
G04 #@! TF.GenerationSoftware,Altium Limited,Altium Designer,24.6.1 (21)*
G04*
G04 Layer_Physical_Order=3*
G04 Layer_Color=16440176*
%FSLAX25Y25*%
%MOIN*%
G70*
G04*
G04 #@! TF.SameCoordinates,68DEAC84-C44A-45A5-B390-26DD8049327B*
G04*
G04*
G04 #@! TF.FilePolarity,Positive*
G04*
G01*
G75*
%ADD15C,0.00800*%
%ADD71C,0.00400*%
%ADD73C,0.02000*%
%ADD77R,0.06200X0.06693*%
%ADD78C,0.06693*%
%ADD79O,0.03937X0.07087*%
%ADD80O,0.03937X0.08661*%
%ADD81C,0.01772*%
%ADD82C,0.05000*%
G36*
X93712Y150999D02*
X95057Y150442D01*
X96500Y150252D01*
Y150286D01*
X111704D01*
X115786Y146204D01*
Y4296D01*
X112204Y714D01*
X4796D01*
X1214Y4296D01*
Y146204D01*
X5296Y150286D01*
X20500D01*
Y150252D01*
X21943Y150442D01*
X23288Y150999D01*
X23437Y151114D01*
X93563D01*
X93712Y150999D01*
D02*
G37*
%LPC*%
G36*
X97276Y133886D02*
X96724D01*
X96215Y133675D01*
X95825Y133285D01*
X95614Y132776D01*
Y132224D01*
X95825Y131715D01*
X96215Y131325D01*
X96724Y131114D01*
X97276D01*
X97785Y131325D01*
X98175Y131715D01*
X98386Y132224D01*
Y132776D01*
X98175Y133285D01*
X97785Y133675D01*
X97276Y133886D01*
D02*
G37*
G36*
X9500Y133525D02*
Y130500D01*
X12525D01*
X12364Y131100D01*
X11818Y132046D01*
X11046Y132818D01*
X10101Y133364D01*
X9500Y133525D01*
D02*
G37*
G36*
X7500D02*
X6899Y133364D01*
X5954Y132818D01*
X5182Y132046D01*
X4636Y131100D01*
X4475Y130500D01*
X7500D01*
Y133525D01*
D02*
G37*
G36*
X66876Y130886D02*
X66324D01*
X65815Y130675D01*
X65425Y130285D01*
X65214Y129776D01*
Y129224D01*
X65425Y128715D01*
X65815Y128325D01*
X66324Y128114D01*
X66876D01*
X67385Y128325D01*
X67775Y128715D01*
X67986Y129224D01*
Y129776D01*
X67775Y130285D01*
X67385Y130675D01*
X66876Y130886D01*
D02*
G37*
G36*
X50776Y129886D02*
X50224D01*
X49715Y129675D01*
X49325Y129285D01*
X49114Y128776D01*
Y128224D01*
X49325Y127715D01*
X49715Y127325D01*
X50224Y127114D01*
X50776D01*
X51285Y127325D01*
X51675Y127715D01*
X51886Y128224D01*
Y128776D01*
X51675Y129285D01*
X51285Y129675D01*
X50776Y129886D01*
D02*
G37*
G36*
X39776D02*
X39224D01*
X38715Y129675D01*
X38325Y129285D01*
X38114Y128776D01*
Y128224D01*
X38325Y127715D01*
X38715Y127325D01*
X39224Y127114D01*
X39776D01*
X40285Y127325D01*
X40675Y127715D01*
X40886Y128224D01*
Y128776D01*
X40675Y129285D01*
X40285Y129675D01*
X39776Y129886D01*
D02*
G37*
G36*
X33276D02*
X32724D01*
X32215Y129675D01*
X31825Y129285D01*
X31614Y128776D01*
Y128224D01*
X31825Y127715D01*
X32215Y127325D01*
X32724Y127114D01*
X33276D01*
X33785Y127325D01*
X34175Y127715D01*
X34386Y128224D01*
Y128776D01*
X34175Y129285D01*
X33785Y129675D01*
X33276Y129886D01*
D02*
G37*
G36*
X26776D02*
X26224D01*
X25715Y129675D01*
X25325Y129285D01*
X25114Y128776D01*
Y128224D01*
X25325Y127715D01*
X25715Y127325D01*
X26224Y127114D01*
X26776D01*
X27285Y127325D01*
X27675Y127715D01*
X27886Y128224D01*
Y128776D01*
X27675Y129285D01*
X27285Y129675D01*
X26776Y129886D01*
D02*
G37*
G36*
X20276D02*
X19724D01*
X19215Y129675D01*
X18825Y129285D01*
X18614Y128776D01*
Y128224D01*
X18825Y127715D01*
X19215Y127325D01*
X19724Y127114D01*
X20276D01*
X20785Y127325D01*
X21175Y127715D01*
X21386Y128224D01*
Y128776D01*
X21175Y129285D01*
X20785Y129675D01*
X20276Y129886D01*
D02*
G37*
G36*
X108993Y133247D02*
X108007D01*
X107054Y132991D01*
X106200Y132498D01*
X105502Y131800D01*
X105009Y130946D01*
X104753Y129993D01*
Y129007D01*
X105009Y128054D01*
X105502Y127200D01*
X106200Y126502D01*
X107054Y126009D01*
X108007Y125753D01*
X108993D01*
X109946Y126009D01*
X110800Y126502D01*
X111498Y127200D01*
X111991Y128054D01*
X112247Y129007D01*
Y129993D01*
X111991Y130946D01*
X111498Y131800D01*
X110800Y132498D01*
X109946Y132991D01*
X108993Y133247D01*
D02*
G37*
G36*
X12525Y128500D02*
X9500D01*
Y125475D01*
X10101Y125636D01*
X11046Y126182D01*
X11818Y126954D01*
X12364Y127900D01*
X12525Y128500D01*
D02*
G37*
G36*
X7500D02*
X4475D01*
X4636Y127900D01*
X5182Y126954D01*
X5954Y126182D01*
X6899Y125636D01*
X7500Y125475D01*
Y128500D01*
D02*
G37*
G36*
X66276Y119886D02*
X65724D01*
X65215Y119675D01*
X64825Y119285D01*
X64614Y118776D01*
Y118224D01*
X64825Y117715D01*
X65215Y117325D01*
X65724Y117114D01*
X66276D01*
X66785Y117325D01*
X67175Y117715D01*
X67386Y118224D01*
Y118776D01*
X67175Y119285D01*
X66785Y119675D01*
X66276Y119886D01*
D02*
G37*
G36*
X108993Y123247D02*
X108007D01*
X107054Y122991D01*
X106200Y122498D01*
X105502Y121800D01*
X105009Y120946D01*
X104753Y119993D01*
Y119007D01*
X105009Y118054D01*
X105502Y117200D01*
X106200Y116502D01*
X107054Y116009D01*
X108007Y115753D01*
X108993D01*
X109946Y116009D01*
X110800Y116502D01*
X111498Y117200D01*
X111991Y118054D01*
X112247Y119007D01*
Y119993D01*
X111991Y120946D01*
X111498Y121800D01*
X110800Y122498D01*
X109946Y122991D01*
X108993Y123247D01*
D02*
G37*
G36*
X8993D02*
X8007D01*
X7054Y122991D01*
X6200Y122498D01*
X5502Y121800D01*
X5009Y120946D01*
X4753Y119993D01*
Y119007D01*
X5009Y118054D01*
X5502Y117200D01*
X6200Y116502D01*
X7054Y116009D01*
X8007Y115753D01*
X8993D01*
X9946Y116009D01*
X10800Y116502D01*
X11498Y117200D01*
X11991Y118054D01*
X12246Y119007D01*
Y119993D01*
X11991Y120946D01*
X11498Y121800D01*
X10800Y122498D01*
X9946Y122991D01*
X8993Y123247D01*
D02*
G37*
G36*
X91776Y114886D02*
X91224D01*
X90715Y114675D01*
X90325Y114285D01*
X90114Y113776D01*
Y113224D01*
X90325Y112715D01*
X90715Y112325D01*
X91224Y112114D01*
X91776D01*
X92285Y112325D01*
X92675Y112715D01*
X92886Y113224D01*
Y113776D01*
X92675Y114285D01*
X92285Y114675D01*
X91776Y114886D01*
D02*
G37*
G36*
X86776D02*
X86224D01*
X85715Y114675D01*
X85325Y114285D01*
X85114Y113776D01*
Y113224D01*
X85325Y112715D01*
X85715Y112325D01*
X86224Y112114D01*
X86776D01*
X87285Y112325D01*
X87675Y112715D01*
X87886Y113224D01*
Y113776D01*
X87675Y114285D01*
X87285Y114675D01*
X86776Y114886D01*
D02*
G37*
G36*
X81276D02*
X80724D01*
X80215Y114675D01*
X79825Y114285D01*
X79614Y113776D01*
Y113224D01*
X79825Y112715D01*
X80215Y112325D01*
X80724Y112114D01*
X81276D01*
X81785Y112325D01*
X82175Y112715D01*
X82386Y113224D01*
Y113776D01*
X82175Y114285D01*
X81785Y114675D01*
X81276Y114886D01*
D02*
G37*
G36*
X50276Y108386D02*
X49724D01*
X49215Y108175D01*
X48825Y107785D01*
X48614Y107276D01*
Y106724D01*
X48637Y106669D01*
X48331Y106363D01*
X48276Y106386D01*
X47724D01*
X47215Y106175D01*
X46825Y105785D01*
X46755Y105616D01*
X46325Y105623D01*
X46175Y105985D01*
X45785Y106375D01*
X45276Y106586D01*
X44724D01*
X44215Y106375D01*
X43825Y105985D01*
X43614Y105476D01*
Y104924D01*
X43825Y104415D01*
X44215Y104025D01*
X44724Y103814D01*
X45276D01*
X45785Y104025D01*
X46175Y104415D01*
X46245Y104584D01*
X46675Y104577D01*
X46825Y104215D01*
X47215Y103825D01*
X47724Y103614D01*
X48276D01*
X48421Y103674D01*
X48727Y103368D01*
X48583Y103021D01*
Y102691D01*
X48294Y102404D01*
X48214Y102386D01*
X47724D01*
X47215Y102175D01*
X46825Y101785D01*
X46614Y101276D01*
Y100724D01*
X46825Y100215D01*
X47215Y99825D01*
X47724Y99614D01*
X48276D01*
X48331Y99637D01*
X48637Y99331D01*
X48614Y99276D01*
Y98724D01*
X48825Y98215D01*
X49215Y97825D01*
X49724Y97614D01*
X50276D01*
X50785Y97825D01*
X51175Y98215D01*
X51386Y98724D01*
Y99276D01*
X51175Y99785D01*
X50785Y100175D01*
X50276Y100386D01*
X49724D01*
X49669Y100363D01*
X49374Y100658D01*
X49376Y100700D01*
X49386Y100724D01*
Y100949D01*
X49390Y101058D01*
X49675Y101341D01*
X49755Y101359D01*
X50245D01*
X50754Y101570D01*
X51144Y101960D01*
X51355Y102469D01*
Y103021D01*
X51144Y103530D01*
X50754Y103920D01*
X50245Y104131D01*
X49693D01*
X49548Y104070D01*
X49242Y104377D01*
X49386Y104724D01*
Y105276D01*
X49363Y105331D01*
X49669Y105637D01*
X49724Y105614D01*
X50276D01*
X50785Y105825D01*
X51175Y106215D01*
X51386Y106724D01*
Y107276D01*
X51175Y107785D01*
X50785Y108175D01*
X50276Y108386D01*
D02*
G37*
G36*
X108993Y113247D02*
X108007D01*
X107054Y112991D01*
X106200Y112498D01*
X105502Y111800D01*
X105009Y110946D01*
X104753Y109993D01*
Y109007D01*
X105009Y108054D01*
X105502Y107200D01*
X106200Y106502D01*
X107054Y106009D01*
X108007Y105754D01*
X108993D01*
X109946Y106009D01*
X110800Y106502D01*
X111498Y107200D01*
X111991Y108054D01*
X112247Y109007D01*
Y109993D01*
X111991Y110946D01*
X111498Y111800D01*
X110800Y112498D01*
X109946Y112991D01*
X108993Y113247D01*
D02*
G37*
G36*
X8993D02*
X8007D01*
X7054Y112991D01*
X6200Y112498D01*
X5502Y111800D01*
X5009Y110946D01*
X4753Y109993D01*
Y109007D01*
X5009Y108054D01*
X5502Y107200D01*
X6200Y106502D01*
X7054Y106009D01*
X8007Y105754D01*
X8993D01*
X9946Y106009D01*
X10800Y106502D01*
X11498Y107200D01*
X11991Y108054D01*
X12246Y109007D01*
Y109993D01*
X11991Y110946D01*
X11498Y111800D01*
X10800Y112498D01*
X9946Y112991D01*
X8993Y113247D01*
D02*
G37*
G36*
X108993Y103246D02*
X108007D01*
X107054Y102991D01*
X106200Y102498D01*
X105502Y101800D01*
X105009Y100946D01*
X104753Y99993D01*
Y99007D01*
X105009Y98054D01*
X105502Y97200D01*
X106200Y96502D01*
X107054Y96009D01*
X108007Y95754D01*
X108993D01*
X109946Y96009D01*
X110800Y96502D01*
X111498Y97200D01*
X111991Y98054D01*
X112247Y99007D01*
Y99993D01*
X111991Y100946D01*
X111498Y101800D01*
X110800Y102498D01*
X109946Y102991D01*
X108993Y103246D01*
D02*
G37*
G36*
X8993D02*
X8007D01*
X7054Y102991D01*
X6200Y102498D01*
X5502Y101800D01*
X5009Y100946D01*
X4753Y99993D01*
Y99007D01*
X5009Y98054D01*
X5502Y97200D01*
X6200Y96502D01*
X7054Y96009D01*
X8007Y95754D01*
X8993D01*
X9946Y96009D01*
X10800Y96502D01*
X11498Y97200D01*
X11991Y98054D01*
X12246Y99007D01*
Y99993D01*
X11991Y100946D01*
X11498Y101800D01*
X10800Y102498D01*
X9946Y102991D01*
X8993Y103246D01*
D02*
G37*
G36*
X108993Y93247D02*
X108007D01*
X107054Y92991D01*
X106200Y92498D01*
X105502Y91800D01*
X105009Y90946D01*
X104795Y90149D01*
X102000D01*
X101541Y89959D01*
X99041Y87459D01*
X98851Y87000D01*
Y68465D01*
X98765Y68371D01*
X98708Y68331D01*
X98451Y68249D01*
X98346Y68319D01*
X98137Y68360D01*
X98076Y68386D01*
X98009D01*
X97800Y68427D01*
X95172D01*
X94625Y68319D01*
X94162Y68009D01*
X94162Y68009D01*
X92991Y66838D01*
X92681Y66375D01*
X92573Y65828D01*
X92573Y65828D01*
Y58391D01*
X88691Y54509D01*
X88381Y54046D01*
X88273Y53500D01*
X88273Y53500D01*
Y42800D01*
X88314Y42591D01*
Y42524D01*
X88340Y42463D01*
X88381Y42254D01*
X88500Y42076D01*
X88525Y42015D01*
X88572Y41968D01*
X88691Y41791D01*
X88868Y41672D01*
X88915Y41625D01*
X88976Y41600D01*
X89154Y41481D01*
X89363Y41440D01*
X89424Y41414D01*
X89491D01*
X89700Y41373D01*
X89909Y41414D01*
X89976D01*
X90037Y41440D01*
X90246Y41481D01*
X90424Y41600D01*
X90485Y41625D01*
X90532Y41672D01*
X90709Y41791D01*
X90828Y41968D01*
X90875Y42015D01*
X90900Y42076D01*
X91019Y42254D01*
X91060Y42463D01*
X91086Y42524D01*
Y42591D01*
X91127Y42800D01*
Y52909D01*
X95009Y56791D01*
X95009Y56791D01*
X95319Y57254D01*
X95427Y57800D01*
X95427Y57800D01*
Y65237D01*
X95763Y65573D01*
X97800D01*
X98009Y65614D01*
X98076D01*
X98137Y65640D01*
X98346Y65681D01*
X98451Y65751D01*
X98708Y65669D01*
X98765Y65629D01*
X98851Y65535D01*
Y58231D01*
X98715Y58175D01*
X98325Y57785D01*
X98114Y57276D01*
Y56724D01*
X98325Y56215D01*
X98715Y55825D01*
X99224Y55614D01*
X99776D01*
X100285Y55825D01*
X100675Y56215D01*
X100784Y56477D01*
X101216D01*
X101325Y56215D01*
X101715Y55825D01*
X102224Y55614D01*
X102776D01*
X103285Y55825D01*
X103675Y56215D01*
X103886Y56724D01*
Y57276D01*
X103675Y57785D01*
X103285Y58175D01*
X103149Y58231D01*
Y78231D01*
X103769Y78851D01*
X104795D01*
X105009Y78054D01*
X105502Y77200D01*
X106200Y76502D01*
X107054Y76009D01*
X108007Y75753D01*
X108993D01*
X109946Y76009D01*
X110800Y76502D01*
X111498Y77200D01*
X111991Y78054D01*
X112247Y79007D01*
Y79993D01*
X111991Y80946D01*
X111498Y81800D01*
X110800Y82498D01*
X109946Y82991D01*
X108993Y83246D01*
X108007D01*
X107054Y82991D01*
X106200Y82498D01*
X105502Y81800D01*
X105009Y80946D01*
X104795Y80149D01*
X103500D01*
X103041Y79959D01*
X102041Y78959D01*
X101851Y78500D01*
Y58231D01*
X101715Y58175D01*
X101325Y57785D01*
X101216Y57523D01*
X100784D01*
X100675Y57785D01*
X100285Y58175D01*
X100149Y58231D01*
Y86731D01*
X102269Y88851D01*
X104795D01*
X105009Y88054D01*
X105502Y87200D01*
X106200Y86502D01*
X107054Y86009D01*
X108007Y85754D01*
X108993D01*
X109946Y86009D01*
X110800Y86502D01*
X111498Y87200D01*
X111991Y88054D01*
X112247Y89007D01*
Y89993D01*
X111991Y90946D01*
X111498Y91800D01*
X110800Y92498D01*
X109946Y92991D01*
X108993Y93247D01*
D02*
G37*
G36*
X56076Y85186D02*
X55524D01*
X55015Y84975D01*
X54625Y84585D01*
X54414Y84076D01*
Y83524D01*
X54625Y83015D01*
X55015Y82625D01*
X55524Y82414D01*
X56076D01*
X56585Y82625D01*
X56975Y83015D01*
X57186Y83524D01*
Y84076D01*
X56975Y84585D01*
X56585Y84975D01*
X56076Y85186D01*
D02*
G37*
G36*
X79376Y75986D02*
X78824D01*
X78315Y75775D01*
X77925Y75385D01*
X77714Y74876D01*
Y74324D01*
X77925Y73815D01*
X78315Y73425D01*
X78824Y73214D01*
X79376D01*
X79885Y73425D01*
X80275Y73815D01*
X80486Y74324D01*
Y74876D01*
X80275Y75385D01*
X79885Y75775D01*
X79376Y75986D01*
D02*
G37*
G36*
X28976Y70886D02*
X28424D01*
X27915Y70675D01*
X27525Y70285D01*
X27314Y69776D01*
Y69224D01*
X27525Y68715D01*
X27915Y68325D01*
X28424Y68114D01*
X28976D01*
X29485Y68325D01*
X29875Y68715D01*
X30086Y69224D01*
Y69776D01*
X29875Y70285D01*
X29485Y70675D01*
X28976Y70886D01*
D02*
G37*
G36*
X68176Y68786D02*
X67624D01*
X67115Y68575D01*
X66725Y68185D01*
X66514Y67676D01*
Y67124D01*
X66725Y66615D01*
X67115Y66225D01*
X67624Y66014D01*
X68176D01*
X68685Y66225D01*
X69075Y66615D01*
X69286Y67124D01*
Y67676D01*
X69075Y68185D01*
X68685Y68575D01*
X68176Y68786D01*
D02*
G37*
G36*
X108993Y73247D02*
X108007D01*
X107054Y72991D01*
X106200Y72498D01*
X105502Y71800D01*
X105009Y70946D01*
X104753Y69993D01*
Y69007D01*
X105009Y68054D01*
X105502Y67200D01*
X106200Y66502D01*
X107054Y66009D01*
X108007Y65754D01*
X108993D01*
X109946Y66009D01*
X110800Y66502D01*
X111498Y67200D01*
X111991Y68054D01*
X112247Y69007D01*
Y69993D01*
X111991Y70946D01*
X111498Y71800D01*
X110800Y72498D01*
X109946Y72991D01*
X108993Y73247D01*
D02*
G37*
G36*
X58376Y62786D02*
X57824D01*
X57315Y62575D01*
X56925Y62185D01*
X56714Y61676D01*
Y61124D01*
X56925Y60615D01*
X57315Y60225D01*
X57824Y60014D01*
X58376D01*
X58885Y60225D01*
X59275Y60615D01*
X59486Y61124D01*
Y61676D01*
X59275Y62185D01*
X58885Y62575D01*
X58376Y62786D01*
D02*
G37*
G36*
X108993Y63247D02*
X108007D01*
X107054Y62991D01*
X106200Y62498D01*
X105502Y61800D01*
X105009Y60946D01*
X104753Y59993D01*
Y59007D01*
X105009Y58054D01*
X105502Y57200D01*
X106200Y56502D01*
X107054Y56009D01*
X108007Y55753D01*
X108993D01*
X109946Y56009D01*
X110800Y56502D01*
X111498Y57200D01*
X111991Y58054D01*
X112247Y59007D01*
Y59993D01*
X111991Y60946D01*
X111498Y61800D01*
X110800Y62498D01*
X109946Y62991D01*
X108993Y63247D01*
D02*
G37*
G36*
X9500Y53525D02*
Y50500D01*
X12525D01*
X12364Y51100D01*
X11818Y52046D01*
X11046Y52818D01*
X10101Y53364D01*
X9500Y53525D01*
D02*
G37*
G36*
X7500D02*
X6899Y53364D01*
X5954Y52818D01*
X5182Y52046D01*
X4636Y51100D01*
X4475Y50500D01*
X7500D01*
Y53525D01*
D02*
G37*
G36*
X46354Y50564D02*
X45803D01*
X45294Y50353D01*
X44904Y49964D01*
X44693Y49454D01*
Y48903D01*
X44904Y48394D01*
X45294Y48004D01*
X45803Y47793D01*
X46354D01*
X46864Y48004D01*
X47254Y48394D01*
X47464Y48903D01*
Y49454D01*
X47254Y49964D01*
X46864Y50353D01*
X46354Y50564D01*
D02*
G37*
G36*
X108993Y53246D02*
X108007D01*
X107054Y52991D01*
X106200Y52498D01*
X105502Y51800D01*
X105009Y50946D01*
X104753Y49993D01*
Y49007D01*
X105009Y48054D01*
X105502Y47200D01*
X106200Y46502D01*
X107054Y46009D01*
X108007Y45754D01*
X108993D01*
X109946Y46009D01*
X110800Y46502D01*
X111498Y47200D01*
X111991Y48054D01*
X112247Y49007D01*
Y49993D01*
X111991Y50946D01*
X111498Y51800D01*
X110800Y52498D01*
X109946Y52991D01*
X108993Y53246D01*
D02*
G37*
G36*
X12525Y48500D02*
X9500D01*
Y45475D01*
X10101Y45636D01*
X11046Y46182D01*
X11818Y46954D01*
X12364Y47899D01*
X12525Y48500D01*
D02*
G37*
G36*
X7500D02*
X4475D01*
X4636Y47899D01*
X5182Y46954D01*
X5954Y46182D01*
X6899Y45636D01*
X7500Y45475D01*
Y48500D01*
D02*
G37*
G36*
X98176Y46886D02*
X97624D01*
X97115Y46675D01*
X96725Y46285D01*
X96514Y45776D01*
Y45224D01*
X96725Y44715D01*
X97115Y44325D01*
X97624Y44114D01*
X98176D01*
X98685Y44325D01*
X99075Y44715D01*
X99286Y45224D01*
Y45776D01*
X99075Y46285D01*
X98685Y46675D01*
X98176Y46886D01*
D02*
G37*
G36*
X67976Y45086D02*
X67424D01*
X66915Y44875D01*
X66525Y44485D01*
X66314Y43976D01*
Y43424D01*
X66525Y42915D01*
X66915Y42525D01*
X67424Y42314D01*
X67976D01*
X68485Y42525D01*
X68875Y42915D01*
X69086Y43424D01*
Y43976D01*
X68875Y44485D01*
X68485Y44875D01*
X67976Y45086D01*
D02*
G37*
G36*
X106400Y43274D02*
X106262Y43246D01*
X105000D01*
Y41984D01*
X104973Y41846D01*
X105000Y41708D01*
Y35754D01*
X112000D01*
Y43246D01*
X106538D01*
X106400Y43274D01*
D02*
G37*
G36*
X12000Y43246D02*
X5000D01*
Y35754D01*
X12000D01*
Y43246D01*
D02*
G37*
G36*
X41992Y26378D02*
Y23221D01*
X43784D01*
Y23795D01*
X43689Y24518D01*
X43410Y25192D01*
X42967Y25770D01*
X42388Y26213D01*
X41992Y26378D01*
D02*
G37*
G36*
X39992Y26378D02*
X39596Y26213D01*
X39018Y25770D01*
X38574Y25192D01*
X38295Y24518D01*
X38200Y23795D01*
Y23221D01*
X39992D01*
Y26378D01*
D02*
G37*
G36*
X76008Y26378D02*
Y23221D01*
X77800D01*
Y23795D01*
X77705Y24518D01*
X77426Y25192D01*
X76982Y25770D01*
X76404Y26213D01*
X76008Y26378D01*
D02*
G37*
G36*
X74008Y26378D02*
X73612Y26213D01*
X73033Y25770D01*
X72590Y25192D01*
X72311Y24518D01*
X72215Y23795D01*
Y23221D01*
X74008D01*
Y26378D01*
D02*
G37*
G36*
X111500Y141149D02*
X70500D01*
X70041Y140959D01*
X68541Y139459D01*
X68351Y139000D01*
Y133269D01*
X68231Y133149D01*
X62000D01*
X61541Y132959D01*
X57541Y128959D01*
X57351Y128500D01*
Y122675D01*
X56951Y122509D01*
X56785Y122675D01*
X56276Y122886D01*
X55724D01*
X55215Y122675D01*
X54825Y122285D01*
X54769Y122149D01*
X20265D01*
X19805Y121959D01*
X16017Y118171D01*
X15827Y117711D01*
Y91394D01*
X14582Y90149D01*
X12205D01*
X11991Y90946D01*
X11498Y91800D01*
X10800Y92498D01*
X9946Y92991D01*
X8993Y93247D01*
X8007D01*
X7054Y92991D01*
X6200Y92498D01*
X5502Y91800D01*
X5009Y90946D01*
X4753Y89993D01*
Y89007D01*
X5009Y88054D01*
X5502Y87200D01*
X6200Y86502D01*
X7054Y86009D01*
X8007Y85754D01*
X8993D01*
X9946Y86009D01*
X10800Y86502D01*
X11498Y87200D01*
X11991Y88054D01*
X12205Y88851D01*
X14851D01*
X15310Y89041D01*
X16935Y90666D01*
X17126Y91125D01*
Y117442D01*
X20534Y120851D01*
X54769D01*
X54825Y120715D01*
X55215Y120325D01*
X55724Y120114D01*
X56276D01*
X56612Y120253D01*
X57010Y120080D01*
X57051Y120036D01*
X57055Y120015D01*
X56825Y119785D01*
X56614Y119276D01*
Y118724D01*
X56825Y118215D01*
X57215Y117825D01*
X57724Y117614D01*
X57795D01*
X58030Y117214D01*
X58001Y117162D01*
X57989Y117156D01*
X21519D01*
X21059Y116965D01*
X18591Y114497D01*
X18401Y114038D01*
Y82098D01*
X16453Y80149D01*
X12205D01*
X11991Y80946D01*
X11498Y81800D01*
X10800Y82498D01*
X9946Y82991D01*
X8993Y83246D01*
X8007D01*
X7054Y82991D01*
X6200Y82498D01*
X5502Y81800D01*
X5009Y80946D01*
X4795Y80149D01*
X4200D01*
X3741Y79959D01*
X2541Y78759D01*
X2351Y78300D01*
Y35100D01*
X2541Y34641D01*
X4475Y32706D01*
X4934Y32516D01*
X18900D01*
X19359Y32706D01*
X19384Y32765D01*
X20159Y33541D01*
X20349Y34000D01*
Y36131D01*
X20869Y36651D01*
X78731D01*
X80851Y34531D01*
Y30400D01*
X81041Y29941D01*
X82341Y28641D01*
X82800Y28451D01*
X94569D01*
X94625Y28315D01*
X95015Y27925D01*
X95524Y27714D01*
X96076D01*
X96585Y27925D01*
X96975Y28315D01*
X97186Y28824D01*
Y29376D01*
X96975Y29885D01*
X96585Y30275D01*
X96076Y30486D01*
X95524D01*
X95015Y30275D01*
X94625Y29885D01*
X94569Y29749D01*
X83069D01*
X82149Y30669D01*
Y34800D01*
X81959Y35259D01*
X79459Y37759D01*
X79000Y37949D01*
X20600D01*
X20141Y37759D01*
X19241Y36859D01*
X19051Y36400D01*
Y34269D01*
X18597Y33815D01*
X5203D01*
X3649Y35369D01*
Y78031D01*
X4416Y78797D01*
X4824Y78743D01*
X5009Y78054D01*
X5502Y77200D01*
X6200Y76502D01*
X7054Y76009D01*
X8007Y75753D01*
X8993D01*
X9946Y76009D01*
X10800Y76502D01*
X11498Y77200D01*
X11991Y78054D01*
X12205Y78851D01*
X16722D01*
X17181Y79041D01*
X19510Y81369D01*
X19700Y81829D01*
Y113769D01*
X21788Y115857D01*
X23916D01*
X24023Y115598D01*
X24038Y115457D01*
X21041Y112459D01*
X20851Y112000D01*
Y72582D01*
X18418Y70149D01*
X12205D01*
X11991Y70946D01*
X11498Y71800D01*
X10800Y72498D01*
X9946Y72991D01*
X8993Y73247D01*
X8007D01*
X7054Y72991D01*
X6200Y72498D01*
X5502Y71800D01*
X5009Y70946D01*
X4753Y69993D01*
Y69007D01*
X5009Y68054D01*
X5502Y67200D01*
X6200Y66502D01*
X7054Y66009D01*
X8007Y65754D01*
X8993D01*
X9946Y66009D01*
X10800Y66502D01*
X11498Y67200D01*
X11991Y68054D01*
X12205Y68851D01*
X18687D01*
X19146Y69041D01*
X21959Y71854D01*
X22149Y72313D01*
Y76125D01*
X22549Y76291D01*
X22715Y76125D01*
X23224Y75914D01*
X23776D01*
X24285Y76125D01*
X24675Y76515D01*
X24886Y77024D01*
Y77576D01*
X24675Y78085D01*
X24285Y78475D01*
X23776Y78686D01*
X23224D01*
X22715Y78475D01*
X22549Y78309D01*
X22149Y78475D01*
Y111731D01*
X24797Y114379D01*
X38181D01*
X38347Y113979D01*
X38153Y113785D01*
X37942Y113276D01*
Y112724D01*
X38153Y112215D01*
X38486Y111882D01*
Y93364D01*
X38677Y92905D01*
X40732Y90849D01*
X41191Y90659D01*
X60827D01*
X60883Y90524D01*
X61273Y90134D01*
X61782Y89923D01*
X62333D01*
X62843Y90134D01*
X62951Y90242D01*
X63351Y90076D01*
Y88769D01*
X62731Y88149D01*
X38769D01*
X36649Y90269D01*
Y105305D01*
X36699Y105325D01*
X37089Y105715D01*
X37300Y106224D01*
Y106776D01*
X37089Y107285D01*
X36699Y107675D01*
X36190Y107886D01*
X35638D01*
X35129Y107675D01*
X34739Y107285D01*
X34528Y106776D01*
Y106224D01*
X34739Y105715D01*
X35129Y105325D01*
X35351Y105234D01*
Y90000D01*
X35541Y89541D01*
X38041Y87041D01*
X38500Y86851D01*
X63000D01*
X63459Y87041D01*
X64459Y88041D01*
X64649Y88500D01*
Y89784D01*
X65049Y89998D01*
X65126Y89947D01*
Y84725D01*
X65316Y84266D01*
X66232Y83349D01*
X66066Y82949D01*
X63700D01*
X63241Y82759D01*
X62441Y81959D01*
X62251Y81500D01*
Y73969D01*
X61397Y73115D01*
X24066D01*
X23607Y72925D01*
X20141Y69459D01*
X19951Y69000D01*
Y61369D01*
X18731Y60149D01*
X12205D01*
X11991Y60946D01*
X11498Y61800D01*
X10800Y62498D01*
X9946Y62991D01*
X8993Y63247D01*
X8007D01*
X7054Y62991D01*
X6200Y62498D01*
X5502Y61800D01*
X5009Y60946D01*
X4753Y59993D01*
Y59007D01*
X5009Y58054D01*
X5502Y57200D01*
X6200Y56502D01*
X7054Y56009D01*
X8007Y55753D01*
X8993D01*
X9946Y56009D01*
X10800Y56502D01*
X11498Y57200D01*
X11991Y58054D01*
X12205Y58851D01*
X19000D01*
X19459Y59041D01*
X21059Y60641D01*
X21249Y61100D01*
Y68731D01*
X24335Y71816D01*
X61666D01*
X62125Y72006D01*
X62681Y72563D01*
X63051Y72409D01*
Y71414D01*
X62715Y71275D01*
X62325Y70885D01*
X62114Y70376D01*
Y69824D01*
X62325Y69315D01*
X62715Y68925D01*
X63224Y68714D01*
X63776D01*
X64285Y68925D01*
X64675Y69315D01*
X64886Y69824D01*
Y70376D01*
X64675Y70885D01*
X64349Y71210D01*
Y79831D01*
X65069Y80551D01*
X74218D01*
X74298Y80151D01*
X74115Y80075D01*
X73725Y79685D01*
X73514Y79176D01*
Y78624D01*
X73725Y78115D01*
X74084Y77756D01*
Y75816D01*
X72269D01*
X71956Y75754D01*
X71692Y75577D01*
X71692Y75577D01*
X71223Y75108D01*
X71046Y74844D01*
X70984Y74531D01*
X70984Y74531D01*
Y55600D01*
X70984Y55600D01*
X71046Y55288D01*
X71223Y55023D01*
X72023Y54223D01*
X72288Y54046D01*
X72600Y53984D01*
X72600Y53984D01*
X85456D01*
X85815Y53625D01*
X86324Y53414D01*
X86876D01*
X87385Y53625D01*
X87775Y54015D01*
X87986Y54524D01*
Y55076D01*
X87775Y55585D01*
X87385Y55975D01*
X86876Y56186D01*
X86324D01*
X85815Y55975D01*
X85456Y55616D01*
X72938D01*
X72616Y55938D01*
Y74184D01*
X74431D01*
X74431Y74184D01*
X74743Y74246D01*
X75008Y74423D01*
X75477Y74892D01*
X75477Y74892D01*
X75654Y75156D01*
X75716Y75469D01*
Y77756D01*
X75839Y77879D01*
X76100Y78094D01*
X76361Y77879D01*
X76515Y77725D01*
X77024Y77514D01*
X77576D01*
X78085Y77725D01*
X78475Y78115D01*
X78686Y78624D01*
Y79176D01*
X78475Y79685D01*
X78085Y80075D01*
X77949Y80131D01*
Y80600D01*
X77759Y81059D01*
X77537Y81281D01*
X77691Y81651D01*
X89577D01*
X89681Y81368D01*
X89691Y81251D01*
X89325Y80885D01*
X89114Y80376D01*
Y79824D01*
X89325Y79315D01*
X89715Y78925D01*
X90224Y78714D01*
X90776D01*
X91285Y78925D01*
X91675Y79315D01*
X91886Y79824D01*
Y80376D01*
X91675Y80885D01*
X91309Y81251D01*
X91319Y81368D01*
X91423Y81651D01*
X94200D01*
X94659Y81841D01*
X96959Y84141D01*
X97149Y84600D01*
Y122966D01*
X96959Y123425D01*
X96425Y123959D01*
X95966Y124149D01*
X95231D01*
X95175Y124285D01*
X94785Y124675D01*
X94276Y124886D01*
X93724D01*
X93215Y124675D01*
X92825Y124285D01*
X92614Y123776D01*
Y123224D01*
X92825Y122715D01*
X93215Y122325D01*
X93724Y122114D01*
X94276D01*
X94785Y122325D01*
X95175Y122715D01*
X95231Y122851D01*
X95697D01*
X95851Y122697D01*
Y84869D01*
X93931Y82949D01*
X77434D01*
X77268Y83349D01*
X78959Y85041D01*
X79149Y85500D01*
Y120269D01*
X79285Y120325D01*
X79675Y120715D01*
X79886Y121224D01*
Y121776D01*
X79675Y122285D01*
X79423Y122536D01*
X79589Y122936D01*
X89233D01*
X89325Y122715D01*
X89715Y122325D01*
X90224Y122114D01*
X90776D01*
X91285Y122325D01*
X91675Y122715D01*
X91886Y123224D01*
Y123776D01*
X91675Y124285D01*
X91285Y124675D01*
X90776Y124886D01*
X90224D01*
X89715Y124675D01*
X89325Y124285D01*
X89305Y124235D01*
X67343D01*
X66884Y124045D01*
X65217Y122378D01*
X65082D01*
X64785Y122675D01*
X64276Y122886D01*
X63724D01*
X63215Y122675D01*
X62825Y122285D01*
X62614Y121776D01*
Y121224D01*
X62825Y120715D01*
X63215Y120325D01*
X63724Y120114D01*
X64276D01*
X64785Y120325D01*
X65175Y120715D01*
X65326Y121079D01*
X65486D01*
X65945Y121269D01*
X67612Y122936D01*
X74411D01*
X74576Y122536D01*
X74325Y122285D01*
X74114Y121776D01*
Y121224D01*
X74325Y120715D01*
X74715Y120325D01*
X74810Y120286D01*
X74730Y119886D01*
X74724D01*
X74215Y119675D01*
X73825Y119285D01*
X73614Y118776D01*
Y118224D01*
X73825Y117715D01*
X74215Y117325D01*
X74351Y117269D01*
Y100269D01*
X73731Y99649D01*
X71500D01*
X71041Y99459D01*
X70041Y98459D01*
X69851Y98000D01*
Y90231D01*
X69715Y90175D01*
X69325Y89785D01*
X69114Y89276D01*
Y88724D01*
X69325Y88215D01*
X69715Y87825D01*
X70224Y87614D01*
X70776D01*
X71285Y87825D01*
X71675Y88215D01*
X71886Y88724D01*
Y89276D01*
X71675Y89785D01*
X71285Y90175D01*
X71149Y90231D01*
Y92825D01*
X71549Y92991D01*
X71715Y92825D01*
X72224Y92614D01*
X72589D01*
X72697Y92464D01*
X72800Y92224D01*
X72614Y91776D01*
Y91224D01*
X72825Y90715D01*
X73029Y90511D01*
X73173Y90250D01*
X73029Y89989D01*
X72825Y89785D01*
X72614Y89276D01*
Y88724D01*
X72825Y88215D01*
X73215Y87825D01*
X73724Y87614D01*
X74276D01*
X74785Y87825D01*
X75175Y88215D01*
X75386Y88724D01*
Y89276D01*
X75175Y89785D01*
X74971Y89989D01*
X74827Y90250D01*
X74971Y90511D01*
X75175Y90715D01*
X75386Y91224D01*
Y91776D01*
X75175Y92285D01*
X74785Y92675D01*
X74276Y92886D01*
X73911D01*
X73804Y93036D01*
X73700Y93276D01*
X73886Y93724D01*
Y94276D01*
X73675Y94785D01*
X73716Y94990D01*
X74002Y95108D01*
X74392Y95498D01*
X74603Y96008D01*
Y96559D01*
X74392Y97068D01*
X74002Y97458D01*
X73492Y97669D01*
X72941D01*
X72432Y97458D01*
X72042Y97068D01*
X71831Y96559D01*
Y96008D01*
X72042Y95498D01*
X72001Y95293D01*
X71715Y95175D01*
X71549Y95009D01*
X71149Y95175D01*
Y97731D01*
X71769Y98351D01*
X74000D01*
X74459Y98541D01*
X75459Y99541D01*
X75649Y100000D01*
Y117269D01*
X75785Y117325D01*
X75951Y117491D01*
X76351Y117325D01*
Y87269D01*
X74731Y85649D01*
X69269D01*
X68649Y86269D01*
Y91769D01*
X68785Y91825D01*
X69175Y92215D01*
X69386Y92724D01*
Y93276D01*
X69175Y93785D01*
X68785Y94175D01*
X68276Y94386D01*
X67724D01*
X67215Y94175D01*
X66825Y93785D01*
X66614Y93276D01*
Y93022D01*
X66301Y92720D01*
X66245Y92719D01*
X65755D01*
X65748Y92719D01*
X65386Y93002D01*
Y93276D01*
X65175Y93785D01*
X64785Y94175D01*
X64276Y94386D01*
X63724D01*
X63215Y94175D01*
X62825Y93785D01*
X62614Y93276D01*
Y93011D01*
X62340Y92702D01*
X62245Y92694D01*
X61782D01*
X61772Y92690D01*
X61386Y92963D01*
Y93276D01*
X61175Y93785D01*
X60785Y94175D01*
X60276Y94386D01*
X59724D01*
X59215Y94175D01*
X58825Y93785D01*
X58769Y93649D01*
X43149D01*
Y111769D01*
X43285Y111825D01*
X43675Y112215D01*
X43886Y112724D01*
Y113276D01*
X43675Y113785D01*
X43481Y113979D01*
X43647Y114379D01*
X49248D01*
X49413Y113979D01*
X49148Y113713D01*
X48937Y113204D01*
Y112653D01*
X48732Y112346D01*
X48559D01*
X48049Y112135D01*
X47660Y111745D01*
X47449Y111236D01*
Y110684D01*
X47660Y110175D01*
X48049Y109785D01*
X48559Y109574D01*
X49110D01*
X49619Y109785D01*
X50009Y110175D01*
X50220Y110684D01*
Y111236D01*
X50425Y111543D01*
X50599D01*
X51108Y111754D01*
X51498Y112143D01*
X51709Y112653D01*
Y113204D01*
X51498Y113713D01*
X51233Y113979D01*
X51398Y114379D01*
X60191D01*
X60651Y114569D01*
X62427Y116346D01*
X62618Y116805D01*
Y117753D01*
X62753Y117809D01*
X63143Y118199D01*
X63354Y118708D01*
Y119260D01*
X63143Y119769D01*
X62753Y120159D01*
X62244Y120370D01*
X61693D01*
X61183Y120159D01*
X60903Y120443D01*
X61175Y120715D01*
X61386Y121224D01*
Y121776D01*
X61175Y122285D01*
X60785Y122675D01*
X60276Y122886D01*
X59724D01*
X59215Y122675D01*
X59049Y122509D01*
X58649Y122675D01*
Y128231D01*
X62269Y131851D01*
X68500D01*
X68959Y132041D01*
X69459Y132541D01*
X69649Y133000D01*
Y138731D01*
X70769Y139851D01*
X85877D01*
X85981Y139568D01*
X85991Y139451D01*
X85625Y139085D01*
X85414Y138576D01*
Y138024D01*
X85625Y137515D01*
X86015Y137125D01*
X86524Y136914D01*
X87076D01*
X87585Y137125D01*
X87975Y137515D01*
X88186Y138024D01*
Y138576D01*
X87975Y139085D01*
X87609Y139451D01*
X87619Y139568D01*
X87723Y139851D01*
X111231D01*
X113351Y137731D01*
Y23769D01*
X110631Y21049D01*
X101261D01*
X100649Y21661D01*
Y32700D01*
X100459Y33159D01*
X99759Y33859D01*
X99300Y34049D01*
X85169D01*
X83749Y35469D01*
Y49400D01*
X83559Y49859D01*
X81559Y51859D01*
X81100Y52049D01*
X64669D01*
X63550Y53169D01*
Y65700D01*
X63359Y66159D01*
X60459Y69059D01*
X60000Y69249D01*
X47431D01*
X47375Y69385D01*
X46985Y69775D01*
X46476Y69986D01*
X45924D01*
X45415Y69775D01*
X45025Y69385D01*
X44814Y68876D01*
Y68324D01*
X45025Y67815D01*
X45415Y67425D01*
X45924Y67214D01*
X46476D01*
X46985Y67425D01*
X47375Y67815D01*
X47431Y67951D01*
X59731D01*
X62251Y65431D01*
Y52900D01*
X62441Y52441D01*
X63941Y50941D01*
X64400Y50751D01*
X80831D01*
X82451Y49131D01*
Y35200D01*
X82641Y34741D01*
X84441Y32941D01*
X84900Y32751D01*
X99031D01*
X99351Y32431D01*
Y21392D01*
X99354Y21382D01*
X99132Y21049D01*
X91031D01*
X90975Y21185D01*
X90585Y21575D01*
X90076Y21786D01*
X89524D01*
X89015Y21575D01*
X88625Y21185D01*
X88414Y20676D01*
Y20124D01*
X88625Y19615D01*
X89015Y19225D01*
X89524Y19014D01*
X90076D01*
X90585Y19225D01*
X90975Y19615D01*
X91031Y19751D01*
X110900D01*
X111359Y19941D01*
X114459Y23041D01*
X114649Y23500D01*
Y138000D01*
X114459Y138459D01*
X111959Y140959D01*
X111500Y141149D01*
D02*
G37*
G36*
X61347Y20686D02*
X60796D01*
X60287Y20475D01*
X59936Y20124D01*
X59585Y20475D01*
X59076Y20686D01*
X58524D01*
X58015Y20475D01*
X57625Y20085D01*
X57414Y19576D01*
Y19024D01*
X57625Y18515D01*
X58015Y18125D01*
X58524Y17914D01*
X59076D01*
X59585Y18125D01*
X59936Y18476D01*
X60287Y18125D01*
X60796Y17914D01*
X61347D01*
X61857Y18125D01*
X62247Y18515D01*
X62458Y19024D01*
Y19576D01*
X62247Y20085D01*
X61857Y20475D01*
X61347Y20686D01*
D02*
G37*
G36*
X6276Y21886D02*
X5724D01*
X5215Y21675D01*
X4825Y21285D01*
X4614Y20776D01*
Y20224D01*
X4825Y19715D01*
X5215Y19325D01*
X5724Y19114D01*
X6276D01*
X6785Y19325D01*
X7175Y19715D01*
X7386Y20224D01*
Y20776D01*
X7175Y21285D01*
X6785Y21675D01*
X6276Y21886D01*
D02*
G37*
G36*
X77800Y21220D02*
X76008D01*
Y18063D01*
X76404Y18227D01*
X76982Y18671D01*
X77426Y19250D01*
X77705Y19923D01*
X77800Y20646D01*
Y21220D01*
D02*
G37*
G36*
X43784Y21220D02*
X41992D01*
Y18063D01*
X42388Y18227D01*
X42967Y18671D01*
X43410Y19250D01*
X43689Y19923D01*
X43784Y20646D01*
Y21220D01*
D02*
G37*
G36*
X39992D02*
X38200D01*
Y20646D01*
X38295Y19923D01*
X38574Y19250D01*
X39018Y18671D01*
X39596Y18227D01*
X39992Y18063D01*
Y21220D01*
D02*
G37*
G36*
X74008Y21220D02*
X72215D01*
Y20646D01*
X72311Y19923D01*
X72590Y19250D01*
X73033Y18671D01*
X73612Y18227D01*
X74008Y18063D01*
Y21220D01*
D02*
G37*
G36*
X52804Y20386D02*
X52253D01*
X51743Y20175D01*
X51354Y19785D01*
X51143Y19276D01*
Y18724D01*
X51354Y18215D01*
X51743Y17825D01*
X52253Y17614D01*
X52804D01*
X53313Y17825D01*
X53641Y18152D01*
X54015Y17778D01*
X54524Y17567D01*
X55076D01*
X55585Y17778D01*
X55975Y18168D01*
X56186Y18677D01*
Y19228D01*
X55975Y19738D01*
X55585Y20127D01*
X55076Y20338D01*
X54524D01*
X54015Y20127D01*
X53688Y19800D01*
X53313Y20175D01*
X52804Y20386D01*
D02*
G37*
G36*
X51300Y35127D02*
X50754Y35019D01*
X50291Y34709D01*
X50291Y34709D01*
X47542Y31960D01*
X47232Y31497D01*
X47124Y30951D01*
X47124Y30951D01*
Y19200D01*
X47165Y18991D01*
Y18924D01*
X47167Y18920D01*
Y11800D01*
X47294Y11494D01*
X48694Y10094D01*
X49000Y9967D01*
X68000D01*
X68306Y10094D01*
X69406Y11194D01*
X69533Y11500D01*
Y20500D01*
X69406Y20806D01*
X69100Y20933D01*
X67852D01*
X67725Y20986D01*
X67173D01*
X67046Y20933D01*
X66200D01*
X65894Y20806D01*
X65594Y20506D01*
X65467Y20200D01*
Y14479D01*
X64621Y13633D01*
X50879D01*
X50033Y14479D01*
Y19600D01*
X49979Y19731D01*
Y30360D01*
X51891Y32273D01*
X51900D01*
X52109Y32314D01*
X52176D01*
X52237Y32340D01*
X52446Y32381D01*
X52624Y32500D01*
X52685Y32525D01*
X52732Y32572D01*
X52909Y32691D01*
X53028Y32868D01*
X53075Y32915D01*
X53100Y32976D01*
X53219Y33154D01*
X53260Y33363D01*
X53286Y33424D01*
Y33491D01*
X53327Y33700D01*
X53286Y33909D01*
Y33976D01*
X53260Y34037D01*
X53219Y34246D01*
X53100Y34424D01*
X53075Y34485D01*
X53028Y34532D01*
X52909Y34709D01*
X52732Y34828D01*
X52685Y34875D01*
X52624Y34900D01*
X52446Y35019D01*
X52237Y35060D01*
X52176Y35086D01*
X52109D01*
X51900Y35127D01*
X51300D01*
X51300Y35127D01*
D02*
G37*
G36*
X41992Y11417D02*
Y7472D01*
X43784D01*
Y8835D01*
X43689Y9557D01*
X43410Y10231D01*
X42967Y10809D01*
X42388Y11253D01*
X41992Y11417D01*
D02*
G37*
G36*
X39992D02*
X39596Y11253D01*
X39018Y10809D01*
X38574Y10231D01*
X38295Y9557D01*
X38200Y8835D01*
Y7472D01*
X39992D01*
Y11417D01*
D02*
G37*
G36*
X76008Y11417D02*
Y7472D01*
X77800D01*
Y8835D01*
X77705Y9557D01*
X77426Y10231D01*
X76982Y10809D01*
X76404Y11253D01*
X76008Y11417D01*
D02*
G37*
G36*
X74008Y11417D02*
X73612Y11253D01*
X73033Y10809D01*
X72590Y10231D01*
X72311Y9557D01*
X72215Y8835D01*
Y7472D01*
X74008D01*
Y11417D01*
D02*
G37*
G36*
X77800Y5472D02*
X76008D01*
Y1528D01*
X76404Y1692D01*
X76982Y2136D01*
X77426Y2714D01*
X77705Y3387D01*
X77800Y4110D01*
Y5472D01*
D02*
G37*
G36*
X43784Y5472D02*
X41992D01*
Y1528D01*
X42388Y1692D01*
X42967Y2136D01*
X43410Y2714D01*
X43689Y3387D01*
X43784Y4110D01*
Y5472D01*
D02*
G37*
G36*
X39992D02*
X38200D01*
Y4110D01*
X38295Y3387D01*
X38574Y2714D01*
X39018Y2136D01*
X39596Y1692D01*
X39992Y1528D01*
Y5472D01*
D02*
G37*
G36*
X74008Y5472D02*
X72215D01*
Y4110D01*
X72311Y3387D01*
X72590Y2714D01*
X73033Y2136D01*
X73612Y1692D01*
X74008Y1528D01*
Y5472D01*
D02*
G37*
%LPD*%
G36*
X69100Y11500D02*
X68000Y10400D01*
X49000D01*
X47600Y11800D01*
Y19600D01*
X49600D01*
Y14300D01*
X50700Y13200D01*
X64800D01*
X65900Y14300D01*
Y20200D01*
X66200Y20500D01*
X69100D01*
Y11500D01*
D02*
G37*
D15*
X74900Y75469D02*
Y78900D01*
X72269Y75000D02*
X74431D01*
X71800Y55600D02*
Y74531D01*
X72269Y75000D01*
X74431D02*
X74900Y75469D01*
X71800Y55600D02*
X72600Y54800D01*
X86600D01*
D71*
X63700Y82300D02*
X94200D01*
X96500Y84600D01*
X62900Y81500D02*
X63700Y82300D01*
X89800Y20400D02*
X100992D01*
X100000Y21392D02*
Y32700D01*
Y21392D02*
X100992Y20400D01*
X110900D01*
X114000Y23500D01*
X8500Y69500D02*
X18687D01*
X21500Y72313D01*
X46200Y68600D02*
X60000D01*
X21500Y72313D02*
Y112000D01*
X19700Y36400D02*
X20600Y37300D01*
X79000D01*
X19700Y34000D02*
Y36400D01*
X79000Y37300D02*
X81500Y34800D01*
X64400Y51400D02*
X81100D01*
X83100Y35200D02*
Y49400D01*
X81100Y51400D02*
X83100Y49400D01*
X84900Y33400D02*
X99300D01*
X83100Y35200D02*
X84900Y33400D01*
X99300D02*
X100000Y32700D01*
X81500Y30400D02*
Y34800D01*
Y30400D02*
X82800Y29100D01*
X95800D01*
X4934Y33166D02*
X18900D01*
Y33200D02*
X19700Y34000D01*
X18900Y33166D02*
Y33200D01*
X3000Y35100D02*
X4934Y33166D01*
X3000Y35100D02*
Y78300D01*
X4200Y79500D02*
X8500D01*
X3000Y78300D02*
X4200Y79500D01*
X62900Y52900D02*
X64400Y51400D01*
X62900Y52900D02*
Y65700D01*
X60000Y68600D02*
X62900Y65700D01*
X24066Y72466D02*
X61666D01*
X20600Y69000D02*
X24066Y72466D01*
X61666D02*
X62900Y73700D01*
Y81500D01*
X19000Y59500D02*
X20600Y61100D01*
Y69000D01*
X77300Y78900D02*
Y80600D01*
X64800Y81200D02*
X76700D01*
X77300Y80600D01*
X63500Y70100D02*
X63700Y70300D01*
Y80100D01*
X64800Y81200D01*
X99500Y57000D02*
Y87000D01*
X102000Y89500D01*
X102500Y57000D02*
Y78500D01*
X103500Y79500D01*
X108500D01*
X96500Y84600D02*
Y122966D01*
X94000Y123500D02*
X95966D01*
X96500Y122966D01*
X65775Y91084D02*
X66024Y91333D01*
X42734Y93000D02*
X60000D01*
X77000Y87000D02*
Y120000D01*
X39136Y93364D02*
X41191Y91309D01*
X62058D01*
X68000Y86000D02*
Y93000D01*
X78500Y85500D02*
Y121500D01*
X75500D02*
X77000Y120000D01*
X65775Y84725D02*
Y91084D01*
X67000Y83500D02*
X76500D01*
X68000Y86000D02*
X69000Y85000D01*
X65775Y84725D02*
X67000Y83500D01*
X76500D02*
X78500Y85500D01*
X69000Y85000D02*
X75000D01*
X77000Y87000D01*
X8500Y59500D02*
X19000D01*
X68500Y132500D02*
X69000Y133000D01*
Y139000D01*
X62000Y132500D02*
X68500D01*
X70500Y140500D02*
X111500D01*
X69000Y139000D02*
X70500Y140500D01*
X58000Y119000D02*
Y128500D01*
X62000Y132500D01*
X114000Y23500D02*
Y138000D01*
X111500Y140500D02*
X114000Y138000D01*
X21500Y112000D02*
X24528Y115028D01*
X60191D01*
X19050Y114038D02*
X21519Y116506D01*
X16722Y79500D02*
X19050Y81829D01*
Y114038D01*
X14851Y89500D02*
X16476Y91125D01*
Y117711D02*
X20265Y121500D01*
X16476Y91125D02*
Y117711D01*
X8500Y89500D02*
X14851D01*
X21519Y116506D02*
X58559D01*
X60000Y117947D02*
Y121500D01*
X38500Y87500D02*
X63000D01*
X36000Y90000D02*
Y106414D01*
Y90000D02*
X38500Y87500D01*
X70500Y89000D02*
Y98000D01*
X71500Y99000D01*
X74000D01*
X75000Y100000D01*
Y118500D01*
X35914Y106500D02*
X36000Y106414D01*
X39136Y93364D02*
Y112808D01*
X39328Y113000D01*
X67343Y123586D02*
X90414D01*
X90500Y123500D01*
X65486Y121729D02*
X67343Y123586D01*
X58559Y116506D02*
X60000Y117947D01*
X20265Y121500D02*
X56000D01*
X60191Y115028D02*
X61968Y116805D01*
Y118984D01*
X42500Y93234D02*
X42734Y93000D01*
X42500Y93234D02*
Y113000D01*
X63000Y87500D02*
X64000Y88500D01*
Y93000D01*
X102000Y89500D02*
X108500D01*
X8500Y79500D02*
X16722D01*
X64228Y121729D02*
X65486D01*
X64000Y121500D02*
X64228Y121729D01*
D73*
X89700Y53500D02*
X94000Y57800D01*
X95172Y67000D02*
X97800D01*
X94000Y57800D02*
Y65828D01*
X95172Y67000D01*
X108500Y39500D02*
Y39746D01*
X106400Y41846D02*
X108500Y39746D01*
X48551Y30951D02*
X51300Y33700D01*
X51900D01*
X89700Y42800D02*
Y53500D01*
X48551Y19200D02*
Y30951D01*
D77*
X8500Y39500D02*
D03*
X108500D02*
D03*
D78*
X8500Y49500D02*
D03*
Y59500D02*
D03*
Y69500D02*
D03*
Y79500D02*
D03*
Y89500D02*
D03*
Y99500D02*
D03*
Y109500D02*
D03*
Y119500D02*
D03*
Y129500D02*
D03*
X108500Y49500D02*
D03*
Y59500D02*
D03*
Y69500D02*
D03*
Y79500D02*
D03*
Y89500D02*
D03*
Y99500D02*
D03*
Y109500D02*
D03*
Y119500D02*
D03*
Y129500D02*
D03*
D79*
X75008Y22220D02*
D03*
X40992D02*
D03*
D80*
X75008Y6472D02*
D03*
X40992D02*
D03*
D81*
X104062Y29475D02*
D03*
X100700Y38700D02*
D03*
X105200Y64200D02*
D03*
X111400Y64600D02*
D03*
X105600Y74000D02*
D03*
X112100Y74400D02*
D03*
X105400Y85000D02*
D03*
X111900Y84400D02*
D03*
X112300Y95400D02*
D03*
X111900Y124400D02*
D03*
X112100Y114400D02*
D03*
X112000Y104100D02*
D03*
X105800Y94900D02*
D03*
X104268Y104437D02*
D03*
X105000Y114000D02*
D03*
X104600Y124200D02*
D03*
X52600Y124500D02*
D03*
X53300Y118700D02*
D03*
X35700Y118200D02*
D03*
X30100Y118700D02*
D03*
X18400Y116300D02*
D03*
X3200Y126300D02*
D03*
X3500Y84787D02*
D03*
X3400Y94100D02*
D03*
X5100Y104700D02*
D03*
X5000Y114600D02*
D03*
X11800Y114900D02*
D03*
X12100Y94600D02*
D03*
Y104800D02*
D03*
X26000Y77900D02*
D03*
X26600Y66500D02*
D03*
X33700Y65600D02*
D03*
X35900Y59100D02*
D03*
X17500Y61200D02*
D03*
X17300Y55700D02*
D03*
X17100Y47500D02*
D03*
X16700Y40500D02*
D03*
X80300Y2900D02*
D03*
X46100Y63200D02*
D03*
X53400Y54500D02*
D03*
X71300Y46400D02*
D03*
X87100Y72700D02*
D03*
X85300Y70600D02*
D03*
X67200Y71500D02*
D03*
X68700Y54500D02*
D03*
X94500Y85900D02*
D03*
X94800Y93300D02*
D03*
X35100Y135200D02*
D03*
X36100Y131100D02*
D03*
X41900Y132200D02*
D03*
X53200Y131300D02*
D03*
X49900D02*
D03*
X45900Y134200D02*
D03*
X42600Y136800D02*
D03*
X34900Y3600D02*
D03*
X35900Y8500D02*
D03*
X6500Y30900D02*
D03*
X17600Y30200D02*
D03*
X23500Y82300D02*
D03*
X35100Y78300D02*
D03*
X39800Y83200D02*
D03*
X59600Y78100D02*
D03*
X66300Y77100D02*
D03*
X96500Y80100D02*
D03*
X80400Y93200D02*
D03*
X94500Y102300D02*
D03*
X93800Y118500D02*
D03*
X84300Y131400D02*
D03*
X84100Y126000D02*
D03*
X104000Y138400D02*
D03*
X110200Y138200D02*
D03*
X112700Y144600D02*
D03*
X105700Y144000D02*
D03*
X99400Y143900D02*
D03*
X92900Y144300D02*
D03*
X85500Y144200D02*
D03*
X76600Y144100D02*
D03*
X69800Y144300D02*
D03*
X26100Y132600D02*
D03*
X30700Y134300D02*
D03*
X22100Y134200D02*
D03*
X34800Y139200D02*
D03*
X27700Y139100D02*
D03*
X20900Y139000D02*
D03*
X11800Y139200D02*
D03*
X5800Y138800D02*
D03*
X15400Y137000D02*
D03*
X15100Y130900D02*
D03*
X15200Y124900D02*
D03*
X15400Y83600D02*
D03*
X23300Y95500D02*
D03*
X23600Y101000D02*
D03*
X23300Y89900D02*
D03*
X33200Y91000D02*
D03*
Y96200D02*
D03*
X70500Y34700D02*
D03*
X77500Y34200D02*
D03*
X85200Y30800D02*
D03*
X82200Y26100D02*
D03*
X80200Y21500D02*
D03*
X109900Y18000D02*
D03*
X111500Y25600D02*
D03*
X111600Y30500D02*
D03*
X110000Y13700D02*
D03*
X103400Y13600D02*
D03*
X109900Y8500D02*
D03*
X103800Y8700D02*
D03*
X109500Y2600D02*
D03*
X103700D02*
D03*
X95200Y2500D02*
D03*
Y7500D02*
D03*
Y12000D02*
D03*
X91200D02*
D03*
Y7500D02*
D03*
Y2500D02*
D03*
X80400Y8500D02*
D03*
X80200Y15100D02*
D03*
X74900Y14900D02*
D03*
X51000Y7400D02*
D03*
X57300D02*
D03*
X64000D02*
D03*
X67500Y3100D02*
D03*
X60600D02*
D03*
X54300D02*
D03*
X48200D02*
D03*
X24700Y5300D02*
D03*
X24500Y8900D02*
D03*
X24600Y11700D02*
D03*
X20500Y11800D02*
D03*
Y5200D02*
D03*
X10600Y11800D02*
D03*
X5600Y3800D02*
D03*
X10400Y6200D02*
D03*
X5800Y8500D02*
D03*
X5900Y13500D02*
D03*
X35700Y14000D02*
D03*
X20400Y8800D02*
D03*
X25900Y16800D02*
D03*
X21300Y16900D02*
D03*
X46200Y59000D02*
D03*
Y83900D02*
D03*
Y76600D02*
D03*
X31700Y149700D02*
D03*
X65700Y33800D02*
D03*
X55800D02*
D03*
X62600Y123800D02*
D03*
X66600Y129500D02*
D03*
X86800Y138300D02*
D03*
X74000Y89000D02*
D03*
X92000Y77000D02*
D03*
X90500Y80100D02*
D03*
X67900Y67400D02*
D03*
X45000Y105200D02*
D03*
X55800Y83800D02*
D03*
X89800Y20400D02*
D03*
X94900Y53800D02*
D03*
X90500Y63500D02*
D03*
X85800Y38300D02*
D03*
X32000Y76500D02*
D03*
X51900Y33700D02*
D03*
X10500Y27000D02*
D03*
X17600Y73900D02*
D03*
Y67100D02*
D03*
X46200Y68600D02*
D03*
X23500Y77300D02*
D03*
X28700Y69500D02*
D03*
X95800Y29100D02*
D03*
X46079Y49179D02*
D03*
X71300Y78900D02*
D03*
X63500Y70100D02*
D03*
X76500Y61086D02*
D03*
X79000D02*
D03*
X81500D02*
D03*
X58100Y61400D02*
D03*
X77300Y78900D02*
D03*
X79100Y74600D02*
D03*
X97800Y67000D02*
D03*
X51500Y42986D02*
D03*
X71600Y41000D02*
D03*
X67700Y43700D02*
D03*
X97900Y45500D02*
D03*
X89700Y42800D02*
D03*
X97100Y61100D02*
D03*
X62058Y91309D02*
D03*
X60000Y93000D02*
D03*
X92000Y94500D02*
D03*
X66024Y91333D02*
D03*
X72500Y94000D02*
D03*
X74900Y78900D02*
D03*
X86600Y54800D02*
D03*
X99500Y57000D02*
D03*
X51300Y16800D02*
D03*
X51000Y20700D02*
D03*
X53700Y15700D02*
D03*
X58000Y15600D02*
D03*
X64100Y19400D02*
D03*
X62800Y15600D02*
D03*
X48551Y19200D02*
D03*
X67449Y19600D02*
D03*
X75500Y30700D02*
D03*
X54800Y18953D02*
D03*
X52528Y19000D02*
D03*
X58800Y19300D02*
D03*
X61072D02*
D03*
X60500Y40300D02*
D03*
X71000Y19500D02*
D03*
X23500Y107500D02*
D03*
X86000Y13500D02*
D03*
X103000Y18000D02*
D03*
X44500Y29500D02*
D03*
X29000Y14500D02*
D03*
X32500Y17500D02*
D03*
X45900Y40200D02*
D03*
X67500Y63500D02*
D03*
X39000Y76500D02*
D03*
X86500Y79500D02*
D03*
X64000Y85000D02*
D03*
X52000Y84000D02*
D03*
X56800Y131500D02*
D03*
X5400Y146000D02*
D03*
X11500Y146500D02*
D03*
X15117Y146406D02*
D03*
X34000Y146500D02*
D03*
X30000D02*
D03*
X26000D02*
D03*
X22600Y146700D02*
D03*
X18600Y146400D02*
D03*
X38000Y146500D02*
D03*
X4000Y143000D02*
D03*
X28000D02*
D03*
X24500D02*
D03*
X20500D02*
D03*
X16500D02*
D03*
X12500D02*
D03*
X8500D02*
D03*
X50883Y143094D02*
D03*
X47383D02*
D03*
X43383D02*
D03*
X39383D02*
D03*
X35383D02*
D03*
X31383D02*
D03*
X8600Y148200D02*
D03*
X13500Y149000D02*
D03*
X109600Y148500D02*
D03*
X104600Y148600D02*
D03*
X101000D02*
D03*
X96500Y148700D02*
D03*
X92000Y149500D02*
D03*
X20500Y148600D02*
D03*
X28000Y149500D02*
D03*
X36000D02*
D03*
X88000D02*
D03*
X84000D02*
D03*
X80000D02*
D03*
X76000D02*
D03*
X72000D02*
D03*
X68000D02*
D03*
X64000D02*
D03*
X60000D02*
D03*
X56000D02*
D03*
X52000D02*
D03*
X48000D02*
D03*
X44000D02*
D03*
X42000Y147000D02*
D03*
X46000D02*
D03*
X50000D02*
D03*
X54000D02*
D03*
X58000D02*
D03*
X61500D02*
D03*
X63500Y144500D02*
D03*
Y141500D02*
D03*
X53500D02*
D03*
X63500Y130500D02*
D03*
X63700Y127700D02*
D03*
X68600Y127300D02*
D03*
X71300Y125600D02*
D03*
X71600Y121900D02*
D03*
X48500Y118500D02*
D03*
X60000Y121500D02*
D03*
X54500Y128500D02*
D03*
X81000Y133000D02*
D03*
Y130000D02*
D03*
X89500Y120000D02*
D03*
X84000D02*
D03*
X81000D02*
D03*
X92500Y111000D02*
D03*
X87000D02*
D03*
X83000D02*
D03*
X81500Y102500D02*
D03*
X50500Y128500D02*
D03*
X39500D02*
D03*
X75000Y118500D02*
D03*
X35914Y106500D02*
D03*
X39328Y113000D02*
D03*
X72000Y119000D02*
D03*
X75500Y121500D02*
D03*
X70500Y89000D02*
D03*
X68000Y93000D02*
D03*
X78500Y121500D02*
D03*
X81000Y113500D02*
D03*
X73217Y96283D02*
D03*
X42500Y113000D02*
D03*
X33000Y128500D02*
D03*
X26500D02*
D03*
X20000D02*
D03*
X81500Y63500D02*
D03*
X76500D02*
D03*
X79000D02*
D03*
X81500Y66000D02*
D03*
X79000D02*
D03*
X76500D02*
D03*
X74000Y91500D02*
D03*
X64000Y93000D02*
D03*
X102500Y57000D02*
D03*
X48000Y101000D02*
D03*
X50000Y107000D02*
D03*
X48000Y105000D02*
D03*
X49969Y102745D02*
D03*
X50000Y99000D02*
D03*
X48834Y110960D02*
D03*
X50323Y112928D02*
D03*
X58000Y119000D02*
D03*
X59800Y124000D02*
D03*
X91500Y113500D02*
D03*
X86500D02*
D03*
X68000Y122000D02*
D03*
X68262Y118963D02*
D03*
X64000Y121500D02*
D03*
X61968Y118984D02*
D03*
X66000Y118500D02*
D03*
X56000Y121500D02*
D03*
X6000Y20500D02*
D03*
X97000Y132500D02*
D03*
X90500Y123500D02*
D03*
X94000D02*
D03*
D82*
X30500Y50600D02*
D03*
X24400D02*
D03*
X36400D02*
D03*
Y43500D02*
D03*
X30500D02*
D03*
X24400D02*
D03*
X30500Y30500D02*
D03*
X24500D02*
D03*
X36500D02*
D03*
X63000Y106000D02*
D03*
X59000Y101500D02*
D03*
X67000D02*
D03*
Y110000D02*
D03*
X59000D02*
D03*
M02*
