G04*
G04 #@! TF.GenerationSoftware,Altium Limited,Altium Designer,24.6.1 (21)*
G04*
G04 Layer_Physical_Order=2*
G04 Layer_Color=36540*
%FSLAX25Y25*%
%MOIN*%
G70*
G04*
G04 #@! TF.SameCoordinates,68DEAC84-C44A-45A5-B390-26DD8049327B*
G04*
G04*
G04 #@! TF.FilePolarity,Positive*
G04*
G01*
G75*
%ADD71C,0.00400*%
%ADD73C,0.02000*%
%ADD77R,0.06200X0.06693*%
%ADD78C,0.06693*%
%ADD79O,0.03937X0.07087*%
%ADD80O,0.03937X0.08661*%
%ADD81C,0.01772*%
%ADD82C,0.05000*%
G36*
X95057Y150442D02*
X96500Y150252D01*
Y150286D01*
X111704D01*
X115786Y146204D01*
Y4296D01*
X112204Y714D01*
X4796D01*
X1214Y4296D01*
Y146204D01*
X5296Y150286D01*
X20500D01*
Y150252D01*
X21943Y150442D01*
X22565Y150700D01*
X94435D01*
X95057Y150442D01*
D02*
G37*
%LPC*%
G36*
X87076Y139686D02*
X86524D01*
X86015Y139475D01*
X85625Y139085D01*
X85414Y138576D01*
Y138024D01*
X85625Y137515D01*
X86015Y137125D01*
X86524Y136914D01*
X87076D01*
X87585Y137125D01*
X87975Y137515D01*
X88186Y138024D01*
Y138576D01*
X87975Y139085D01*
X87585Y139475D01*
X87076Y139686D01*
D02*
G37*
G36*
X97276Y133886D02*
X96724D01*
X96215Y133675D01*
X95825Y133285D01*
X95614Y132776D01*
Y132224D01*
X95825Y131715D01*
X96215Y131325D01*
X96724Y131114D01*
X97276D01*
X97785Y131325D01*
X98175Y131715D01*
X98386Y132224D01*
Y132776D01*
X98175Y133285D01*
X97785Y133675D01*
X97276Y133886D01*
D02*
G37*
G36*
X9500Y133525D02*
Y130500D01*
X12525D01*
X12364Y131100D01*
X11818Y132046D01*
X11046Y132818D01*
X10101Y133364D01*
X9500Y133525D01*
D02*
G37*
G36*
X7500D02*
X6899Y133364D01*
X5954Y132818D01*
X5182Y132046D01*
X4636Y131100D01*
X4475Y130500D01*
X7500D01*
Y133525D01*
D02*
G37*
G36*
X66876Y130886D02*
X66324D01*
X65815Y130675D01*
X65425Y130285D01*
X65214Y129776D01*
Y129224D01*
X65425Y128715D01*
X65815Y128325D01*
X66324Y128114D01*
X66876D01*
X67385Y128325D01*
X67775Y128715D01*
X67986Y129224D01*
Y129776D01*
X67775Y130285D01*
X67385Y130675D01*
X66876Y130886D01*
D02*
G37*
G36*
X50776Y129886D02*
X50224D01*
X49715Y129675D01*
X49325Y129285D01*
X49114Y128776D01*
Y128224D01*
X49325Y127715D01*
X49715Y127325D01*
X50224Y127114D01*
X50776D01*
X51285Y127325D01*
X51675Y127715D01*
X51886Y128224D01*
Y128776D01*
X51675Y129285D01*
X51285Y129675D01*
X50776Y129886D01*
D02*
G37*
G36*
X39776D02*
X39224D01*
X38715Y129675D01*
X38325Y129285D01*
X38114Y128776D01*
Y128224D01*
X38325Y127715D01*
X38715Y127325D01*
X39224Y127114D01*
X39776D01*
X40285Y127325D01*
X40675Y127715D01*
X40886Y128224D01*
Y128776D01*
X40675Y129285D01*
X40285Y129675D01*
X39776Y129886D01*
D02*
G37*
G36*
X33276D02*
X32724D01*
X32215Y129675D01*
X31825Y129285D01*
X31614Y128776D01*
Y128224D01*
X31825Y127715D01*
X32215Y127325D01*
X32724Y127114D01*
X33276D01*
X33785Y127325D01*
X34175Y127715D01*
X34386Y128224D01*
Y128776D01*
X34175Y129285D01*
X33785Y129675D01*
X33276Y129886D01*
D02*
G37*
G36*
X26776D02*
X26224D01*
X25715Y129675D01*
X25325Y129285D01*
X25114Y128776D01*
Y128224D01*
X25325Y127715D01*
X25715Y127325D01*
X26224Y127114D01*
X26776D01*
X27285Y127325D01*
X27675Y127715D01*
X27886Y128224D01*
Y128776D01*
X27675Y129285D01*
X27285Y129675D01*
X26776Y129886D01*
D02*
G37*
G36*
X20276D02*
X19724D01*
X19215Y129675D01*
X18825Y129285D01*
X18614Y128776D01*
Y128224D01*
X18825Y127715D01*
X19215Y127325D01*
X19724Y127114D01*
X20276D01*
X20785Y127325D01*
X21175Y127715D01*
X21386Y128224D01*
Y128776D01*
X21175Y129285D01*
X20785Y129675D01*
X20276Y129886D01*
D02*
G37*
G36*
X108993Y133247D02*
X108007D01*
X107054Y132991D01*
X106200Y132498D01*
X105502Y131800D01*
X105009Y130946D01*
X104753Y129993D01*
Y129007D01*
X105009Y128054D01*
X105502Y127200D01*
X106200Y126502D01*
X107054Y126009D01*
X108007Y125753D01*
X108993D01*
X109946Y126009D01*
X110800Y126502D01*
X111498Y127200D01*
X111991Y128054D01*
X112247Y129007D01*
Y129993D01*
X111991Y130946D01*
X111498Y131800D01*
X110800Y132498D01*
X109946Y132991D01*
X108993Y133247D01*
D02*
G37*
G36*
X12525Y128500D02*
X9500D01*
Y125475D01*
X10101Y125636D01*
X11046Y126182D01*
X11818Y126954D01*
X12364Y127900D01*
X12525Y128500D01*
D02*
G37*
G36*
X7500D02*
X4475D01*
X4636Y127900D01*
X5182Y126954D01*
X5954Y126182D01*
X6899Y125636D01*
X7500Y125475D01*
Y128500D01*
D02*
G37*
G36*
X94276Y124886D02*
X93724D01*
X93215Y124675D01*
X92825Y124285D01*
X92614Y123776D01*
Y123224D01*
X92825Y122715D01*
X93215Y122325D01*
X93724Y122114D01*
X94276D01*
X94785Y122325D01*
X95175Y122715D01*
X95386Y123224D01*
Y123776D01*
X95175Y124285D01*
X94785Y124675D01*
X94276Y124886D01*
D02*
G37*
G36*
X90776D02*
X90224D01*
X89715Y124675D01*
X89325Y124285D01*
X89114Y123776D01*
Y123224D01*
X89325Y122715D01*
X89715Y122325D01*
X90224Y122114D01*
X90776D01*
X91285Y122325D01*
X91675Y122715D01*
X91886Y123224D01*
Y123776D01*
X91675Y124285D01*
X91285Y124675D01*
X90776Y124886D01*
D02*
G37*
G36*
X78776Y122886D02*
X78224D01*
X77715Y122675D01*
X77325Y122285D01*
X77217Y122023D01*
X76784D01*
X76675Y122285D01*
X76285Y122675D01*
X75776Y122886D01*
X75224D01*
X74715Y122675D01*
X74325Y122285D01*
X74114Y121776D01*
Y121224D01*
X74325Y120715D01*
X74715Y120325D01*
X74810Y120286D01*
X74730Y119886D01*
X74724D01*
X74215Y119675D01*
X73825Y119285D01*
X73614Y118776D01*
Y118224D01*
X73825Y117715D01*
X74215Y117325D01*
X74724Y117114D01*
X75276D01*
X75785Y117325D01*
X76175Y117715D01*
X76386Y118224D01*
Y118776D01*
X76175Y119285D01*
X75785Y119675D01*
X75690Y119714D01*
X75770Y120114D01*
X75776D01*
X76285Y120325D01*
X76675Y120715D01*
X76784Y120977D01*
X77217D01*
X77325Y120715D01*
X77715Y120325D01*
X78224Y120114D01*
X78776D01*
X79285Y120325D01*
X79675Y120715D01*
X79886Y121224D01*
Y121776D01*
X79675Y122285D01*
X79285Y122675D01*
X78776Y122886D01*
D02*
G37*
G36*
X64276D02*
X63724D01*
X63215Y122675D01*
X62825Y122285D01*
X62614Y121776D01*
Y121224D01*
X62825Y120715D01*
X63215Y120325D01*
X63724Y120114D01*
X64276D01*
X64785Y120325D01*
X65175Y120715D01*
X65386Y121224D01*
Y121776D01*
X65175Y122285D01*
X64785Y122675D01*
X64276Y122886D01*
D02*
G37*
G36*
X56276D02*
X55724D01*
X55215Y122675D01*
X54825Y122285D01*
X54614Y121776D01*
Y121224D01*
X54825Y120715D01*
X55215Y120325D01*
X55724Y120114D01*
X56276D01*
X56785Y120325D01*
X57175Y120715D01*
X57386Y121224D01*
Y121776D01*
X57175Y122285D01*
X56785Y122675D01*
X56276Y122886D01*
D02*
G37*
G36*
X58276Y120386D02*
X57724D01*
X57215Y120175D01*
X56825Y119785D01*
X56614Y119276D01*
Y118724D01*
X56825Y118215D01*
X57215Y117825D01*
X57724Y117614D01*
X58276D01*
X58785Y117825D01*
X59175Y118215D01*
X59386Y118724D01*
Y119276D01*
X59175Y119785D01*
X58785Y120175D01*
X58276Y120386D01*
D02*
G37*
G36*
X60276Y122886D02*
X59724D01*
X59215Y122675D01*
X58825Y122285D01*
X58614Y121776D01*
Y121224D01*
X58825Y120715D01*
X59215Y120325D01*
X59724Y120114D01*
X60276D01*
X60785Y120325D01*
X61066Y120041D01*
X60793Y119769D01*
X60582Y119260D01*
Y118708D01*
X60793Y118199D01*
X61183Y117809D01*
X61693Y117598D01*
X62244D01*
X62753Y117809D01*
X63143Y118199D01*
X63354Y118708D01*
Y119260D01*
X63143Y119769D01*
X62753Y120159D01*
X62244Y120370D01*
X61693D01*
X61183Y120159D01*
X60903Y120443D01*
X61175Y120715D01*
X61386Y121224D01*
Y121776D01*
X61175Y122285D01*
X60785Y122675D01*
X60276Y122886D01*
D02*
G37*
G36*
X66276Y119886D02*
X65724D01*
X65215Y119675D01*
X64825Y119285D01*
X64614Y118776D01*
Y118224D01*
X64825Y117715D01*
X65215Y117325D01*
X65724Y117114D01*
X66276D01*
X66785Y117325D01*
X67175Y117715D01*
X67386Y118224D01*
Y118776D01*
X67175Y119285D01*
X66785Y119675D01*
X66276Y119886D01*
D02*
G37*
G36*
X108993Y123247D02*
X108007D01*
X107054Y122991D01*
X106200Y122498D01*
X105502Y121800D01*
X105009Y120946D01*
X104753Y119993D01*
Y119007D01*
X105009Y118054D01*
X105502Y117200D01*
X106200Y116502D01*
X107054Y116009D01*
X108007Y115753D01*
X108993D01*
X109946Y116009D01*
X110800Y116502D01*
X111498Y117200D01*
X111991Y118054D01*
X112247Y119007D01*
Y119993D01*
X111991Y120946D01*
X111498Y121800D01*
X110800Y122498D01*
X109946Y122991D01*
X108993Y123247D01*
D02*
G37*
G36*
X42776Y114386D02*
X42224D01*
X41715Y114175D01*
X41325Y113785D01*
X41114Y113276D01*
Y112724D01*
X41325Y112215D01*
X41715Y111825D01*
X42224Y111614D01*
X42776D01*
X43285Y111825D01*
X43675Y112215D01*
X43886Y112724D01*
Y113276D01*
X43675Y113785D01*
X43285Y114175D01*
X42776Y114386D01*
D02*
G37*
G36*
X39604D02*
X39053D01*
X38543Y114175D01*
X38153Y113785D01*
X37942Y113276D01*
Y112724D01*
X38153Y112215D01*
X38543Y111825D01*
X39053Y111614D01*
X39604D01*
X40113Y111825D01*
X40503Y112215D01*
X40714Y112724D01*
Y113276D01*
X40503Y113785D01*
X40113Y114175D01*
X39604Y114386D01*
D02*
G37*
G36*
X50599Y114314D02*
X50047D01*
X49538Y114103D01*
X49148Y113713D01*
X48937Y113204D01*
Y112653D01*
X48732Y112346D01*
X48559D01*
X48049Y112135D01*
X47660Y111745D01*
X47449Y111236D01*
Y110684D01*
X47660Y110175D01*
X48049Y109785D01*
X48559Y109574D01*
X49110D01*
X49619Y109785D01*
X50009Y110175D01*
X50220Y110684D01*
Y111236D01*
X50425Y111543D01*
X50599D01*
X51108Y111754D01*
X51498Y112143D01*
X51709Y112653D01*
Y113204D01*
X51498Y113713D01*
X51108Y114103D01*
X50599Y114314D01*
D02*
G37*
G36*
X50276Y108386D02*
X49724D01*
X49215Y108175D01*
X48825Y107785D01*
X48614Y107276D01*
Y106724D01*
X48637Y106669D01*
X48331Y106363D01*
X48276Y106386D01*
X47724D01*
X47215Y106175D01*
X46825Y105785D01*
X46755Y105616D01*
X46718Y105609D01*
X46337Y105653D01*
X46319Y105746D01*
X46200Y105924D01*
X46175Y105985D01*
X46128Y106032D01*
X46009Y106209D01*
X45832Y106328D01*
X45785Y106375D01*
X45724Y106400D01*
X45546Y106519D01*
X45337Y106560D01*
X45276Y106586D01*
X45209D01*
X45000Y106627D01*
X44791Y106586D01*
X44724D01*
X44663Y106560D01*
X44454Y106519D01*
X44276Y106400D01*
X44215Y106375D01*
X44168Y106328D01*
X43991Y106209D01*
X43872Y106032D01*
X43825Y105985D01*
X43800Y105924D01*
X43681Y105746D01*
X43640Y105537D01*
X43614Y105476D01*
Y105409D01*
X43573Y105200D01*
Y88186D01*
X43573Y88186D01*
X43681Y87639D01*
X43991Y87176D01*
X44576Y86591D01*
X44576Y86591D01*
X45039Y86281D01*
X45586Y86173D01*
X54209D01*
X54473Y85909D01*
Y84303D01*
X54440Y84137D01*
X54414Y84076D01*
Y84009D01*
X54373Y83800D01*
X54373Y83800D01*
Y74691D01*
X54009Y74327D01*
X37286D01*
X36740Y74219D01*
X36276Y73909D01*
X36276Y73909D01*
X35691Y73324D01*
X35381Y72860D01*
X35273Y72314D01*
X35273Y72314D01*
Y63527D01*
X24927D01*
Y77300D01*
X24886Y77509D01*
Y77576D01*
X24860Y77637D01*
X24819Y77846D01*
X24700Y78024D01*
X24675Y78085D01*
X24628Y78132D01*
X24509Y78309D01*
X24332Y78428D01*
X24285Y78475D01*
X24224Y78500D01*
X24046Y78619D01*
X23837Y78660D01*
X23776Y78686D01*
X23709D01*
X23500Y78727D01*
X23291Y78686D01*
X23224D01*
X23163Y78660D01*
X22954Y78619D01*
X22776Y78500D01*
X22715Y78475D01*
X22668Y78428D01*
X22491Y78309D01*
X22372Y78132D01*
X22325Y78085D01*
X22300Y78024D01*
X22181Y77846D01*
X22140Y77637D01*
X22114Y77576D01*
Y77509D01*
X22073Y77300D01*
Y62686D01*
X22073Y62686D01*
X22181Y62139D01*
X22491Y61676D01*
X23076Y61091D01*
X23076Y61091D01*
X23539Y60781D01*
X24086Y60673D01*
X36114D01*
X36114Y60673D01*
X36661Y60781D01*
X37124Y61091D01*
X37709Y61676D01*
X37709Y61676D01*
X38019Y62139D01*
X38127Y62686D01*
Y71473D01*
X54600D01*
X54600Y71473D01*
X55146Y71581D01*
X55609Y71891D01*
X56809Y73091D01*
X56809Y73091D01*
X57119Y73554D01*
X57227Y74100D01*
X57227Y74100D01*
Y83397D01*
X57327Y83900D01*
X57327Y83900D01*
Y86500D01*
X57219Y87046D01*
X56909Y87509D01*
X56909Y87509D01*
X55809Y88609D01*
X55346Y88919D01*
X54800Y89027D01*
X54800Y89027D01*
X46427D01*
Y100130D01*
X46814Y100213D01*
X46827Y100213D01*
X47215Y99825D01*
X47724Y99614D01*
X48276D01*
X48331Y99637D01*
X48637Y99331D01*
X48614Y99276D01*
Y98724D01*
X48825Y98215D01*
X49215Y97825D01*
X49724Y97614D01*
X50276D01*
X50785Y97825D01*
X51175Y98215D01*
X51386Y98724D01*
Y99276D01*
X51175Y99785D01*
X50785Y100175D01*
X50276Y100386D01*
X49724D01*
X49669Y100363D01*
X49374Y100658D01*
X49376Y100700D01*
X49386Y100724D01*
Y100949D01*
X49390Y101058D01*
X49675Y101341D01*
X49755Y101359D01*
X50245D01*
X50754Y101570D01*
X51144Y101960D01*
X51355Y102469D01*
Y103021D01*
X51144Y103530D01*
X50754Y103920D01*
X50245Y104131D01*
X49693D01*
X49548Y104070D01*
X49242Y104377D01*
X49386Y104724D01*
Y105276D01*
X49363Y105331D01*
X49669Y105637D01*
X49724Y105614D01*
X50276D01*
X50785Y105825D01*
X51175Y106215D01*
X51386Y106724D01*
Y107276D01*
X51175Y107785D01*
X50785Y108175D01*
X50276Y108386D01*
D02*
G37*
G36*
X108993Y113247D02*
X108007D01*
X107054Y112991D01*
X106200Y112498D01*
X105502Y111800D01*
X105009Y110946D01*
X104753Y109993D01*
Y109007D01*
X105009Y108054D01*
X105502Y107200D01*
X106200Y106502D01*
X107054Y106009D01*
X108007Y105754D01*
X108993D01*
X109946Y106009D01*
X110800Y106502D01*
X111498Y107200D01*
X111991Y108054D01*
X112247Y109007D01*
Y109993D01*
X111991Y110946D01*
X111498Y111800D01*
X110800Y112498D01*
X109946Y112991D01*
X108993Y113247D01*
D02*
G37*
G36*
X8993D02*
X8007D01*
X7054Y112991D01*
X6200Y112498D01*
X5502Y111800D01*
X5009Y110946D01*
X4753Y109993D01*
Y109007D01*
X5009Y108054D01*
X5502Y107200D01*
X6200Y106502D01*
X7054Y106009D01*
X8007Y105754D01*
X8993D01*
X9946Y106009D01*
X10800Y106502D01*
X11498Y107200D01*
X11991Y108054D01*
X12246Y109007D01*
Y109993D01*
X11991Y110946D01*
X11498Y111800D01*
X10800Y112498D01*
X9946Y112991D01*
X8993Y113247D01*
D02*
G37*
G36*
X36190Y107886D02*
X35638D01*
X35129Y107675D01*
X34739Y107285D01*
X34528Y106776D01*
Y106224D01*
X34739Y105715D01*
X35129Y105325D01*
X35638Y105114D01*
X36190D01*
X36699Y105325D01*
X37089Y105715D01*
X37300Y106224D01*
Y106776D01*
X37089Y107285D01*
X36699Y107675D01*
X36190Y107886D01*
D02*
G37*
G36*
X108993Y103246D02*
X108007D01*
X107054Y102991D01*
X106200Y102498D01*
X105502Y101800D01*
X105009Y100946D01*
X104753Y99993D01*
Y99007D01*
X105009Y98054D01*
X105502Y97200D01*
X106200Y96502D01*
X107054Y96009D01*
X108007Y95754D01*
X108993D01*
X109946Y96009D01*
X110800Y96502D01*
X111498Y97200D01*
X111991Y98054D01*
X112247Y99007D01*
Y99993D01*
X111991Y100946D01*
X111498Y101800D01*
X110800Y102498D01*
X109946Y102991D01*
X108993Y103246D01*
D02*
G37*
G36*
X8993D02*
X8007D01*
X7054Y102991D01*
X6200Y102498D01*
X5502Y101800D01*
X5009Y100946D01*
X4753Y99993D01*
Y99007D01*
X5009Y98054D01*
X5502Y97200D01*
X6200Y96502D01*
X7054Y96009D01*
X8007Y95754D01*
X8993D01*
X9946Y96009D01*
X10800Y96502D01*
X11498Y97200D01*
X11991Y98054D01*
X12246Y99007D01*
Y99993D01*
X11991Y100946D01*
X11498Y101800D01*
X10800Y102498D01*
X9946Y102991D01*
X8993Y103246D01*
D02*
G37*
G36*
X68276Y94386D02*
X67724D01*
X67215Y94175D01*
X66825Y93785D01*
X66614Y93276D01*
Y93022D01*
X66301Y92720D01*
X66245Y92719D01*
X65755D01*
X65748Y92719D01*
X65386Y93002D01*
Y93276D01*
X65175Y93785D01*
X64785Y94175D01*
X64276Y94386D01*
X63724D01*
X63215Y94175D01*
X62825Y93785D01*
X62614Y93276D01*
Y93011D01*
X62340Y92702D01*
X62245Y92694D01*
X61782D01*
X61772Y92690D01*
X61386Y92963D01*
Y93276D01*
X61175Y93785D01*
X60785Y94175D01*
X60276Y94386D01*
X59724D01*
X59215Y94175D01*
X58825Y93785D01*
X58614Y93276D01*
Y92724D01*
X58825Y92215D01*
X59215Y91825D01*
X59724Y91614D01*
X60276D01*
X60286Y91618D01*
X60672Y91345D01*
Y91033D01*
X60883Y90524D01*
X61273Y90134D01*
X61782Y89923D01*
X62333D01*
X62843Y90134D01*
X63232Y90524D01*
X63443Y91033D01*
Y91298D01*
X63718Y91606D01*
X63813Y91614D01*
X64269D01*
X64276Y91614D01*
X64638Y91331D01*
Y91058D01*
X64849Y90548D01*
X65239Y90158D01*
X65748Y89947D01*
X66300D01*
X66809Y90158D01*
X67199Y90548D01*
X67410Y91058D01*
Y91312D01*
X67724Y91613D01*
X67779Y91614D01*
X68276D01*
X68785Y91825D01*
X69175Y92215D01*
X69386Y92724D01*
Y93276D01*
X69175Y93785D01*
X68785Y94175D01*
X68276Y94386D01*
D02*
G37*
G36*
X73492Y97669D02*
X72941D01*
X72432Y97458D01*
X72042Y97068D01*
X71831Y96559D01*
Y96008D01*
X72042Y95498D01*
X72001Y95293D01*
X71715Y95175D01*
X71325Y94785D01*
X71114Y94276D01*
Y93724D01*
X71325Y93215D01*
X71715Y92825D01*
X72224Y92614D01*
X72589D01*
X72697Y92464D01*
X72800Y92224D01*
X72614Y91776D01*
Y91224D01*
X72825Y90715D01*
X73029Y90511D01*
X73173Y90250D01*
X73029Y89989D01*
X72825Y89785D01*
X72614Y89276D01*
Y88724D01*
X72825Y88215D01*
X73215Y87825D01*
X73724Y87614D01*
X74276D01*
X74785Y87825D01*
X75175Y88215D01*
X75386Y88724D01*
Y89276D01*
X75175Y89785D01*
X74971Y89989D01*
X74827Y90250D01*
X74971Y90511D01*
X75175Y90715D01*
X75386Y91224D01*
Y91776D01*
X75175Y92285D01*
X74785Y92675D01*
X74276Y92886D01*
X73911D01*
X73804Y93036D01*
X73700Y93276D01*
X73886Y93724D01*
Y94276D01*
X73675Y94785D01*
X73716Y94990D01*
X74002Y95108D01*
X74392Y95498D01*
X74603Y96008D01*
Y96559D01*
X74392Y97068D01*
X74002Y97458D01*
X73492Y97669D01*
D02*
G37*
G36*
X70776Y90386D02*
X70224D01*
X69715Y90175D01*
X69325Y89785D01*
X69114Y89276D01*
Y88724D01*
X69325Y88215D01*
X69715Y87825D01*
X70224Y87614D01*
X70776D01*
X71285Y87825D01*
X71675Y88215D01*
X71886Y88724D01*
Y89276D01*
X71675Y89785D01*
X71285Y90175D01*
X70776Y90386D01*
D02*
G37*
G36*
X108993Y93247D02*
X108007D01*
X107054Y92991D01*
X106200Y92498D01*
X105502Y91800D01*
X105009Y90946D01*
X104753Y89993D01*
Y89007D01*
X105009Y88054D01*
X105502Y87200D01*
X106200Y86502D01*
X107054Y86009D01*
X108007Y85754D01*
X108993D01*
X109946Y86009D01*
X110800Y86502D01*
X111498Y87200D01*
X111991Y88054D01*
X112247Y89007D01*
Y89993D01*
X111991Y90946D01*
X111498Y91800D01*
X110800Y92498D01*
X109946Y92991D01*
X108993Y93247D01*
D02*
G37*
G36*
X8993D02*
X8007D01*
X7054Y92991D01*
X6200Y92498D01*
X5502Y91800D01*
X5009Y90946D01*
X4753Y89993D01*
Y89007D01*
X5009Y88054D01*
X5502Y87200D01*
X6200Y86502D01*
X7054Y86009D01*
X8007Y85754D01*
X8993D01*
X9946Y86009D01*
X10800Y86502D01*
X11498Y87200D01*
X11991Y88054D01*
X12246Y89007D01*
Y89993D01*
X11991Y90946D01*
X11498Y91800D01*
X10800Y92498D01*
X9946Y92991D01*
X8993Y93247D01*
D02*
G37*
G36*
X77576Y80286D02*
X77024D01*
X76515Y80075D01*
X76361Y79921D01*
X76100Y79706D01*
X75839Y79921D01*
X75685Y80075D01*
X75176Y80286D01*
X74624D01*
X74115Y80075D01*
X73725Y79685D01*
X73514Y79176D01*
Y78624D01*
X73725Y78115D01*
X74115Y77725D01*
X74624Y77514D01*
X75176D01*
X75685Y77725D01*
X75839Y77879D01*
X76100Y78094D01*
X76361Y77879D01*
X76515Y77725D01*
X77024Y77514D01*
X77576D01*
X78085Y77725D01*
X78475Y78115D01*
X78686Y78624D01*
Y79176D01*
X78475Y79685D01*
X78085Y80075D01*
X77576Y80286D01*
D02*
G37*
G36*
X90776Y81486D02*
X90224D01*
X89715Y81275D01*
X89325Y80885D01*
X89114Y80376D01*
Y79824D01*
X89325Y79315D01*
X89715Y78925D01*
X90224Y78714D01*
X90776D01*
X91285Y78925D01*
X91675Y79315D01*
X91886Y79824D01*
Y80376D01*
X91675Y80885D01*
X91285Y81275D01*
X90776Y81486D01*
D02*
G37*
G36*
X108993Y83246D02*
X108007D01*
X107054Y82991D01*
X106200Y82498D01*
X105502Y81800D01*
X105009Y80946D01*
X104753Y79993D01*
Y79007D01*
X105009Y78054D01*
X105502Y77200D01*
X106200Y76502D01*
X107054Y76009D01*
X108007Y75753D01*
X108993D01*
X109946Y76009D01*
X110800Y76502D01*
X111498Y77200D01*
X111991Y78054D01*
X112247Y79007D01*
Y79993D01*
X111991Y80946D01*
X111498Y81800D01*
X110800Y82498D01*
X109946Y82991D01*
X108993Y83246D01*
D02*
G37*
G36*
X8993D02*
X8007D01*
X7054Y82991D01*
X6200Y82498D01*
X5502Y81800D01*
X5009Y80946D01*
X4753Y79993D01*
Y79007D01*
X5009Y78054D01*
X5502Y77200D01*
X6200Y76502D01*
X7054Y76009D01*
X8007Y75753D01*
X8993D01*
X9946Y76009D01*
X10800Y76502D01*
X11498Y77200D01*
X11991Y78054D01*
X12246Y79007D01*
Y79993D01*
X11991Y80946D01*
X11498Y81800D01*
X10800Y82498D01*
X9946Y82991D01*
X8993Y83246D01*
D02*
G37*
G36*
X97500Y114927D02*
X97500Y114927D01*
X81000D01*
X80791Y114886D01*
X80724D01*
X80663Y114860D01*
X80454Y114819D01*
X80276Y114700D01*
X80215Y114675D01*
X80168Y114628D01*
X79991Y114509D01*
X79872Y114332D01*
X79825Y114285D01*
X79800Y114224D01*
X79681Y114046D01*
X79640Y113837D01*
X79614Y113776D01*
Y113709D01*
X79573Y113500D01*
X79614Y113291D01*
Y113224D01*
X79640Y113163D01*
X79681Y112954D01*
X79800Y112776D01*
X79825Y112715D01*
X79872Y112668D01*
X79991Y112491D01*
X80168Y112372D01*
X80215Y112325D01*
X80276Y112300D01*
X80454Y112181D01*
X80663Y112140D01*
X80724Y112114D01*
X80791D01*
X81000Y112073D01*
X96909D01*
X99073Y109909D01*
Y75513D01*
X98737Y75177D01*
X95650D01*
X95650Y75177D01*
X95104Y75069D01*
X94641Y74759D01*
X94641Y74759D01*
X92591Y72709D01*
X92281Y72246D01*
X92173Y71700D01*
X92173Y71700D01*
Y60491D01*
X89391Y57709D01*
X89081Y57246D01*
X88973Y56700D01*
X88973Y56700D01*
Y46672D01*
X88973Y46672D01*
X89081Y46125D01*
X89391Y45662D01*
X90562Y44491D01*
X90562Y44491D01*
X91025Y44181D01*
X91572Y44073D01*
X97309D01*
X100544Y40837D01*
X101007Y40528D01*
X101553Y40419D01*
X101554Y40419D01*
X105000D01*
Y38019D01*
X102209Y35227D01*
X83591D01*
X80409Y38409D01*
X79946Y38719D01*
X79400Y38827D01*
X79400Y38827D01*
X12000D01*
Y43246D01*
X5000D01*
Y35754D01*
X12000D01*
Y35973D01*
X78809D01*
X81991Y32791D01*
X81991Y32791D01*
X82454Y32481D01*
X83000Y32373D01*
X83000Y32373D01*
X102800D01*
X102800Y32373D01*
X103346Y32481D01*
X103809Y32791D01*
X106772Y35754D01*
X112000D01*
Y43246D01*
X106538D01*
X106400Y43274D01*
X102145D01*
X98909Y46509D01*
X98732Y46628D01*
X98685Y46675D01*
X98624Y46700D01*
X98446Y46819D01*
X98237Y46860D01*
X98176Y46886D01*
X98109D01*
X97900Y46927D01*
X97900Y46927D01*
X92163D01*
X91827Y47263D01*
Y56109D01*
X94609Y58891D01*
X94609Y58891D01*
X94919Y59354D01*
X95027Y59900D01*
Y71109D01*
X96241Y72323D01*
X99328D01*
X99328Y72323D01*
X99875Y72431D01*
X100338Y72741D01*
X101509Y73912D01*
X101509Y73912D01*
X101819Y74375D01*
X101927Y74922D01*
Y110500D01*
X101927Y110500D01*
X101819Y111046D01*
X101509Y111509D01*
X101509Y111509D01*
X98509Y114509D01*
X98046Y114819D01*
X97500Y114927D01*
D02*
G37*
G36*
X79376Y75986D02*
X78824D01*
X78315Y75775D01*
X77925Y75385D01*
X77714Y74876D01*
Y74324D01*
X77925Y73815D01*
X78315Y73425D01*
X78824Y73214D01*
X79376D01*
X79885Y73425D01*
X80275Y73815D01*
X80486Y74324D01*
Y74876D01*
X80275Y75385D01*
X79885Y75775D01*
X79376Y75986D01*
D02*
G37*
G36*
X63776Y71486D02*
X63224D01*
X62715Y71275D01*
X62325Y70885D01*
X62114Y70376D01*
Y69824D01*
X62325Y69315D01*
X62715Y68925D01*
X63224Y68714D01*
X63776D01*
X64285Y68925D01*
X64675Y69315D01*
X64886Y69824D01*
Y70376D01*
X64675Y70885D01*
X64285Y71275D01*
X63776Y71486D01*
D02*
G37*
G36*
X8993Y123247D02*
X8007D01*
X7054Y122991D01*
X6200Y122498D01*
X5502Y121800D01*
X5009Y120946D01*
X4753Y119993D01*
Y119007D01*
X5009Y118054D01*
X5502Y117200D01*
X6200Y116502D01*
X7054Y116009D01*
X8007Y115753D01*
X8993D01*
X9946Y116009D01*
X10800Y116502D01*
X11498Y117200D01*
X11991Y118054D01*
X11996Y118073D01*
X24509D01*
X27273Y115309D01*
Y69500D01*
X27314Y69291D01*
Y69224D01*
X27340Y69163D01*
X27381Y68954D01*
X27500Y68776D01*
X27525Y68715D01*
X27572Y68668D01*
X27691Y68491D01*
X27868Y68372D01*
X27915Y68325D01*
X27976Y68300D01*
X28154Y68181D01*
X28363Y68140D01*
X28424Y68114D01*
X28491D01*
X28700Y68073D01*
X28909Y68114D01*
X28976D01*
X29037Y68140D01*
X29246Y68181D01*
X29424Y68300D01*
X29485Y68325D01*
X29532Y68372D01*
X29709Y68491D01*
X29828Y68668D01*
X29875Y68715D01*
X29900Y68776D01*
X30019Y68954D01*
X30060Y69163D01*
X30086Y69224D01*
Y69291D01*
X30127Y69500D01*
Y115900D01*
X30019Y116446D01*
X29709Y116909D01*
X29709Y116909D01*
X26109Y120509D01*
X25646Y120819D01*
X25100Y120927D01*
X25100Y120927D01*
X11996D01*
X11991Y120946D01*
X11498Y121800D01*
X10800Y122498D01*
X9946Y122991D01*
X8993Y123247D01*
D02*
G37*
G36*
X46476Y69986D02*
X45924D01*
X45415Y69775D01*
X45025Y69385D01*
X44814Y68876D01*
Y68324D01*
X45025Y67815D01*
X45415Y67425D01*
X45924Y67214D01*
X46476D01*
X46985Y67425D01*
X47375Y67815D01*
X47586Y68324D01*
Y68876D01*
X47375Y69385D01*
X46985Y69775D01*
X46476Y69986D01*
D02*
G37*
G36*
X68176Y68786D02*
X67624D01*
X67115Y68575D01*
X66725Y68185D01*
X66514Y67676D01*
Y67124D01*
X66725Y66615D01*
X67115Y66225D01*
X67624Y66014D01*
X68176D01*
X68685Y66225D01*
X69075Y66615D01*
X69286Y67124D01*
Y67676D01*
X69075Y68185D01*
X68685Y68575D01*
X68176Y68786D01*
D02*
G37*
G36*
X108993Y73247D02*
X108007D01*
X107054Y72991D01*
X106200Y72498D01*
X105502Y71800D01*
X105009Y70946D01*
X104753Y69993D01*
Y69007D01*
X105009Y68054D01*
X105502Y67200D01*
X106200Y66502D01*
X107054Y66009D01*
X108007Y65754D01*
X108993D01*
X109946Y66009D01*
X110800Y66502D01*
X111498Y67200D01*
X111991Y68054D01*
X112247Y69007D01*
Y69993D01*
X111991Y70946D01*
X111498Y71800D01*
X110800Y72498D01*
X109946Y72991D01*
X108993Y73247D01*
D02*
G37*
G36*
X8993D02*
X8007D01*
X7054Y72991D01*
X6200Y72498D01*
X5502Y71800D01*
X5009Y70946D01*
X4753Y69993D01*
Y69007D01*
X5009Y68054D01*
X5502Y67200D01*
X6200Y66502D01*
X7054Y66009D01*
X8007Y65754D01*
X8993D01*
X9946Y66009D01*
X10800Y66502D01*
X11498Y67200D01*
X11991Y68054D01*
X12246Y69007D01*
Y69993D01*
X11991Y70946D01*
X11498Y71800D01*
X10800Y72498D01*
X9946Y72991D01*
X8993Y73247D01*
D02*
G37*
G36*
X98076Y68386D02*
X97524D01*
X97015Y68175D01*
X96625Y67785D01*
X96414Y67276D01*
Y66724D01*
X96625Y66215D01*
X97015Y65825D01*
X97524Y65614D01*
X98076D01*
X98585Y65825D01*
X98975Y66215D01*
X99186Y66724D01*
Y67276D01*
X98975Y67785D01*
X98585Y68175D01*
X98076Y68386D01*
D02*
G37*
G36*
X58376Y62786D02*
X57824D01*
X57315Y62575D01*
X56925Y62185D01*
X56714Y61676D01*
Y61124D01*
X56925Y60615D01*
X57315Y60225D01*
X57824Y60014D01*
X58376D01*
X58885Y60225D01*
X59275Y60615D01*
X59486Y61124D01*
Y61676D01*
X59275Y62185D01*
X58885Y62575D01*
X58376Y62786D01*
D02*
G37*
G36*
X102776Y58386D02*
X102224D01*
X101715Y58175D01*
X101325Y57785D01*
X101216Y57523D01*
X100784D01*
X100675Y57785D01*
X100285Y58175D01*
X99776Y58386D01*
X99224D01*
X98715Y58175D01*
X98325Y57785D01*
X98114Y57276D01*
Y56724D01*
X98325Y56215D01*
X98715Y55825D01*
X99224Y55614D01*
X99776D01*
X100285Y55825D01*
X100675Y56215D01*
X100784Y56477D01*
X101216D01*
X101325Y56215D01*
X101715Y55825D01*
X102224Y55614D01*
X102776D01*
X103285Y55825D01*
X103675Y56215D01*
X103886Y56724D01*
Y57276D01*
X103675Y57785D01*
X103285Y58175D01*
X102776Y58386D01*
D02*
G37*
G36*
X108993Y63247D02*
X108007D01*
X107054Y62991D01*
X106200Y62498D01*
X105502Y61800D01*
X105009Y60946D01*
X104753Y59993D01*
Y59007D01*
X105009Y58054D01*
X105502Y57200D01*
X106200Y56502D01*
X107054Y56009D01*
X108007Y55753D01*
X108993D01*
X109946Y56009D01*
X110800Y56502D01*
X111498Y57200D01*
X111991Y58054D01*
X112247Y59007D01*
Y59993D01*
X111991Y60946D01*
X111498Y61800D01*
X110800Y62498D01*
X109946Y62991D01*
X108993Y63247D01*
D02*
G37*
G36*
X8993D02*
X8007D01*
X7054Y62991D01*
X6200Y62498D01*
X5502Y61800D01*
X5009Y60946D01*
X4753Y59993D01*
Y59007D01*
X5009Y58054D01*
X5502Y57200D01*
X6200Y56502D01*
X7054Y56009D01*
X8007Y55753D01*
X8993D01*
X9946Y56009D01*
X10800Y56502D01*
X11498Y57200D01*
X11991Y58054D01*
X12246Y59007D01*
Y59993D01*
X11991Y60946D01*
X11498Y61800D01*
X10800Y62498D01*
X9946Y62991D01*
X8993Y63247D01*
D02*
G37*
G36*
X86876Y56186D02*
X86324D01*
X85815Y55975D01*
X85425Y55585D01*
X85214Y55076D01*
Y54524D01*
X85425Y54015D01*
X85815Y53625D01*
X86324Y53414D01*
X86876D01*
X87385Y53625D01*
X87775Y54015D01*
X87986Y54524D01*
Y55076D01*
X87775Y55585D01*
X87385Y55975D01*
X86876Y56186D01*
D02*
G37*
G36*
X44386Y54764D02*
X3714D01*
X3255Y54573D01*
X2941Y54259D01*
X2751Y53800D01*
Y21300D01*
X2941Y20841D01*
X3741Y20041D01*
X4200Y19851D01*
X4769D01*
X4825Y19715D01*
X5215Y19325D01*
X5724Y19114D01*
X6276D01*
X6785Y19325D01*
X7175Y19715D01*
X7386Y20224D01*
Y20776D01*
X7175Y21285D01*
X6785Y21675D01*
X6276Y21886D01*
X5724D01*
X5215Y21675D01*
X4825Y21285D01*
X4819Y21270D01*
X4400Y21219D01*
X4049Y21569D01*
Y48544D01*
X4449Y48596D01*
X4636Y47899D01*
X5182Y46954D01*
X5954Y46182D01*
X6899Y45636D01*
X7500Y45475D01*
Y49500D01*
X8500D01*
Y50500D01*
X12525D01*
X12364Y51100D01*
X11818Y52046D01*
X11046Y52818D01*
X10619Y53065D01*
X10726Y53465D01*
X44117D01*
X45429Y52152D01*
Y50410D01*
X45294Y50353D01*
X44904Y49964D01*
X44693Y49454D01*
Y48903D01*
X44904Y48394D01*
X45294Y48004D01*
X45803Y47793D01*
X46354D01*
X46864Y48004D01*
X47254Y48394D01*
X47464Y48903D01*
Y49454D01*
X47254Y49964D01*
X46864Y50353D01*
X46728Y50410D01*
Y52421D01*
X46538Y52881D01*
X44845Y54573D01*
X44386Y54764D01*
D02*
G37*
G36*
X108993Y53246D02*
X108007D01*
X107054Y52991D01*
X106200Y52498D01*
X105502Y51800D01*
X105009Y50946D01*
X104753Y49993D01*
Y49007D01*
X105009Y48054D01*
X105502Y47200D01*
X106200Y46502D01*
X107054Y46009D01*
X108007Y45754D01*
X108993D01*
X109946Y46009D01*
X110800Y46502D01*
X111498Y47200D01*
X111991Y48054D01*
X112247Y49007D01*
Y49993D01*
X111991Y50946D01*
X111498Y51800D01*
X110800Y52498D01*
X109946Y52991D01*
X108993Y53246D01*
D02*
G37*
G36*
X12525Y48500D02*
X9500D01*
Y45475D01*
X10101Y45636D01*
X11046Y46182D01*
X11818Y46954D01*
X12364Y47899D01*
X12525Y48500D01*
D02*
G37*
G36*
X67976Y45086D02*
X67424D01*
X66915Y44875D01*
X66525Y44485D01*
X66314Y43976D01*
Y43424D01*
X66525Y42915D01*
X66915Y42525D01*
X67424Y42314D01*
X67976D01*
X68485Y42525D01*
X68875Y42915D01*
X69086Y43424D01*
Y43976D01*
X68875Y44485D01*
X68485Y44875D01*
X67976Y45086D01*
D02*
G37*
G36*
X89976Y44186D02*
X89424D01*
X88915Y43975D01*
X88525Y43585D01*
X88314Y43076D01*
Y42524D01*
X88525Y42015D01*
X88915Y41625D01*
X89424Y41414D01*
X89976D01*
X90485Y41625D01*
X90875Y42015D01*
X91086Y42524D01*
Y43076D01*
X90875Y43585D01*
X90485Y43975D01*
X89976Y44186D01*
D02*
G37*
G36*
X52176Y35086D02*
X51624D01*
X51115Y34875D01*
X50725Y34485D01*
X50514Y33976D01*
Y33424D01*
X50725Y32915D01*
X51115Y32525D01*
X51624Y32314D01*
X52176D01*
X52685Y32525D01*
X53075Y32915D01*
X53286Y33424D01*
Y33976D01*
X53075Y34485D01*
X52685Y34875D01*
X52176Y35086D01*
D02*
G37*
G36*
X96076Y30486D02*
X95524D01*
X95015Y30275D01*
X94625Y29885D01*
X94414Y29376D01*
Y28824D01*
X94625Y28315D01*
X95015Y27925D01*
X95524Y27714D01*
X96076D01*
X96585Y27925D01*
X96975Y28315D01*
X97186Y28824D01*
Y29376D01*
X96975Y29885D01*
X96585Y30275D01*
X96076Y30486D01*
D02*
G37*
G36*
X41992Y26378D02*
Y23221D01*
X43784D01*
Y23795D01*
X43689Y24518D01*
X43410Y25192D01*
X42967Y25770D01*
X42388Y26213D01*
X41992Y26378D01*
D02*
G37*
G36*
X39992Y26378D02*
X39596Y26213D01*
X39018Y25770D01*
X38574Y25192D01*
X38295Y24518D01*
X38200Y23795D01*
Y23221D01*
X39992D01*
Y26378D01*
D02*
G37*
G36*
X76008Y26378D02*
Y23221D01*
X77800D01*
Y23795D01*
X77705Y24518D01*
X77426Y25192D01*
X76982Y25770D01*
X76404Y26213D01*
X76008Y26378D01*
D02*
G37*
G36*
X74008Y26378D02*
X73612Y26213D01*
X73033Y25770D01*
X72590Y25192D01*
X72311Y24518D01*
X72215Y23795D01*
Y23221D01*
X74008D01*
Y26378D01*
D02*
G37*
G36*
X61347Y20686D02*
X60796D01*
X60287Y20475D01*
X59936Y20124D01*
X59585Y20475D01*
X59076Y20686D01*
X58524D01*
X58015Y20475D01*
X57625Y20085D01*
X57414Y19576D01*
Y19024D01*
X57625Y18515D01*
X58015Y18125D01*
X58524Y17914D01*
X59076D01*
X59585Y18125D01*
X59936Y18476D01*
X60287Y18125D01*
X60796Y17914D01*
X61347D01*
X61857Y18125D01*
X62247Y18515D01*
X62458Y19024D01*
Y19576D01*
X62247Y20085D01*
X61857Y20475D01*
X61347Y20686D01*
D02*
G37*
G36*
X90076Y21786D02*
X89524D01*
X89015Y21575D01*
X88625Y21185D01*
X88414Y20676D01*
Y20124D01*
X88625Y19615D01*
X89015Y19225D01*
X89524Y19014D01*
X90076D01*
X90585Y19225D01*
X90975Y19615D01*
X91186Y20124D01*
Y20676D01*
X90975Y21185D01*
X90585Y21575D01*
X90076Y21786D01*
D02*
G37*
G36*
X67725Y20986D02*
X67173D01*
X66664Y20775D01*
X66274Y20385D01*
X66063Y19876D01*
Y19324D01*
X66274Y18815D01*
X66664Y18425D01*
X67173Y18214D01*
X67725D01*
X68234Y18425D01*
X68624Y18815D01*
X68835Y19324D01*
Y19876D01*
X68624Y20385D01*
X68234Y20775D01*
X67725Y20986D01*
D02*
G37*
G36*
X77800Y21220D02*
X76008D01*
Y18063D01*
X76404Y18227D01*
X76982Y18671D01*
X77426Y19250D01*
X77705Y19923D01*
X77800Y20646D01*
Y21220D01*
D02*
G37*
G36*
X43784Y21220D02*
X41992D01*
Y18063D01*
X42388Y18227D01*
X42967Y18671D01*
X43410Y19250D01*
X43689Y19923D01*
X43784Y20646D01*
Y21220D01*
D02*
G37*
G36*
X39992D02*
X38200D01*
Y20646D01*
X38295Y19923D01*
X38574Y19250D01*
X39018Y18671D01*
X39596Y18227D01*
X39992Y18063D01*
Y21220D01*
D02*
G37*
G36*
X74008Y21220D02*
X72215D01*
Y20646D01*
X72311Y19923D01*
X72590Y19250D01*
X73033Y18671D01*
X73612Y18227D01*
X74008Y18063D01*
Y21220D01*
D02*
G37*
G36*
X48827Y20586D02*
X48276D01*
X47766Y20375D01*
X47376Y19985D01*
X47165Y19476D01*
Y18924D01*
X47376Y18415D01*
X47766Y18025D01*
X48276Y17814D01*
X48827D01*
X49336Y18025D01*
X49726Y18415D01*
X49937Y18924D01*
Y19476D01*
X49726Y19985D01*
X49336Y20375D01*
X48827Y20586D01*
D02*
G37*
G36*
X52804Y20386D02*
X52253D01*
X51743Y20175D01*
X51354Y19785D01*
X51143Y19276D01*
Y18724D01*
X51354Y18215D01*
X51743Y17825D01*
X52253Y17614D01*
X52804D01*
X53313Y17825D01*
X53641Y18152D01*
X54015Y17778D01*
X54524Y17567D01*
X55076D01*
X55585Y17778D01*
X55975Y18168D01*
X56186Y18677D01*
Y19228D01*
X55975Y19738D01*
X55585Y20127D01*
X55076Y20338D01*
X54524D01*
X54015Y20127D01*
X53688Y19800D01*
X53313Y20175D01*
X52804Y20386D01*
D02*
G37*
G36*
X41992Y11417D02*
Y7472D01*
X43784D01*
Y8835D01*
X43689Y9557D01*
X43410Y10231D01*
X42967Y10809D01*
X42388Y11253D01*
X41992Y11417D01*
D02*
G37*
G36*
X39992D02*
X39596Y11253D01*
X39018Y10809D01*
X38574Y10231D01*
X38295Y9557D01*
X38200Y8835D01*
Y7472D01*
X39992D01*
Y11417D01*
D02*
G37*
G36*
X76008Y11417D02*
Y7472D01*
X77800D01*
Y8835D01*
X77705Y9557D01*
X77426Y10231D01*
X76982Y10809D01*
X76404Y11253D01*
X76008Y11417D01*
D02*
G37*
G36*
X74008Y11417D02*
X73612Y11253D01*
X73033Y10809D01*
X72590Y10231D01*
X72311Y9557D01*
X72215Y8835D01*
Y7472D01*
X74008D01*
Y11417D01*
D02*
G37*
G36*
X77800Y5472D02*
X76008D01*
Y1528D01*
X76404Y1692D01*
X76982Y2136D01*
X77426Y2714D01*
X77705Y3387D01*
X77800Y4110D01*
Y5472D01*
D02*
G37*
G36*
X43784Y5472D02*
X41992D01*
Y1528D01*
X42388Y1692D01*
X42967Y2136D01*
X43410Y2714D01*
X43689Y3387D01*
X43784Y4110D01*
Y5472D01*
D02*
G37*
G36*
X39992D02*
X38200D01*
Y4110D01*
X38295Y3387D01*
X38574Y2714D01*
X39018Y2136D01*
X39596Y1692D01*
X39992Y1528D01*
Y5472D01*
D02*
G37*
G36*
X74008Y5472D02*
X72215D01*
Y4110D01*
X72311Y3387D01*
X72590Y2714D01*
X73033Y2136D01*
X73612Y1692D01*
X74008Y1528D01*
Y5472D01*
D02*
G37*
%LPD*%
D71*
X3714Y54114D02*
X44386D01*
X3400Y53800D02*
X3714Y54114D01*
X44386D02*
X46079Y52421D01*
X3400Y21300D02*
X4200Y20500D01*
X6000D01*
X3400Y21300D02*
Y53800D01*
X46079Y49179D02*
Y52421D01*
D73*
X86500Y113500D02*
X97500D01*
X100500Y110500D01*
X8500Y39500D02*
X10600Y37400D01*
X79400D02*
X83000Y33800D01*
X10600Y37400D02*
X79400D01*
X54600Y72900D02*
X55800Y74100D01*
X36700Y62686D02*
Y72314D01*
X37286Y72900D01*
X54600D01*
X36114Y62100D02*
X36700Y62686D01*
X24086Y62100D02*
X36114D01*
X23500Y62686D02*
Y77300D01*
Y62686D02*
X24086Y62100D01*
X55800Y74100D02*
Y83800D01*
X55900Y83900D02*
Y86500D01*
X55800Y83800D02*
X55900Y83900D01*
X45000Y88186D02*
X45586Y87600D01*
X54800D01*
X55900Y86500D01*
X45000Y88186D02*
Y105200D01*
X101553Y41846D02*
X106400D01*
X97900Y45500D02*
X101553Y41846D01*
X93600Y71700D02*
X95650Y73750D01*
X99328D02*
X100500Y74922D01*
X95650Y73750D02*
X99328D01*
X100500Y74922D02*
Y110500D01*
X93600Y59900D02*
Y71700D01*
X91572Y45500D02*
X97900D01*
X90400Y46672D02*
X91572Y45500D01*
X90400Y56700D02*
X93600Y59900D01*
X90400Y46672D02*
Y56700D01*
X81000Y113500D02*
X86500D01*
X102800Y33800D02*
X106154Y37154D01*
X83000Y33800D02*
X102800D01*
X106400Y37154D02*
X108500Y39254D01*
X106154Y37154D02*
X106400D01*
X108500Y39254D02*
Y39500D01*
X28700Y69500D02*
Y115900D01*
X25100Y119500D02*
X28700Y115900D01*
X8500Y119500D02*
X25100D01*
D77*
X8500Y39500D02*
D03*
X108500D02*
D03*
D78*
X8500Y49500D02*
D03*
Y59500D02*
D03*
Y69500D02*
D03*
Y79500D02*
D03*
Y89500D02*
D03*
Y99500D02*
D03*
Y109500D02*
D03*
Y119500D02*
D03*
Y129500D02*
D03*
X108500Y49500D02*
D03*
Y59500D02*
D03*
Y69500D02*
D03*
Y79500D02*
D03*
Y89500D02*
D03*
Y99500D02*
D03*
Y109500D02*
D03*
Y119500D02*
D03*
Y129500D02*
D03*
D79*
X75008Y22220D02*
D03*
X40992D02*
D03*
D80*
X75008Y6472D02*
D03*
X40992D02*
D03*
D81*
X104062Y29475D02*
D03*
X100700Y38700D02*
D03*
X105200Y64200D02*
D03*
X111400Y64600D02*
D03*
X105600Y74000D02*
D03*
X112100Y74400D02*
D03*
X105400Y85000D02*
D03*
X111900Y84400D02*
D03*
X112300Y95400D02*
D03*
X111900Y124400D02*
D03*
X112100Y114400D02*
D03*
X112000Y104100D02*
D03*
X105800Y94900D02*
D03*
X104268Y104437D02*
D03*
X105000Y114000D02*
D03*
X104600Y124200D02*
D03*
X52600Y124500D02*
D03*
X53300Y118700D02*
D03*
X35700Y118200D02*
D03*
X30100Y118700D02*
D03*
X18400Y116300D02*
D03*
X3200Y126300D02*
D03*
X3500Y84787D02*
D03*
X3400Y94100D02*
D03*
X5100Y104700D02*
D03*
X5000Y114600D02*
D03*
X11800Y114900D02*
D03*
X12100Y94600D02*
D03*
Y104800D02*
D03*
X26000Y77900D02*
D03*
X26600Y66500D02*
D03*
X33700Y65600D02*
D03*
X35900Y59100D02*
D03*
X17500Y61200D02*
D03*
X17300Y55700D02*
D03*
X17100Y47500D02*
D03*
X16700Y40500D02*
D03*
X80300Y2900D02*
D03*
X46100Y63200D02*
D03*
X53400Y54500D02*
D03*
X71300Y46400D02*
D03*
X87100Y72700D02*
D03*
X85300Y70600D02*
D03*
X67200Y71500D02*
D03*
X68700Y54500D02*
D03*
X94500Y85900D02*
D03*
X94800Y93300D02*
D03*
X35100Y135200D02*
D03*
X36100Y131100D02*
D03*
X41900Y132200D02*
D03*
X53200Y131300D02*
D03*
X49900D02*
D03*
X45900Y134200D02*
D03*
X42600Y136800D02*
D03*
X34900Y3600D02*
D03*
X35900Y8500D02*
D03*
X6500Y30900D02*
D03*
X17600Y30200D02*
D03*
X23500Y82300D02*
D03*
X35100Y78300D02*
D03*
X39800Y83200D02*
D03*
X59600Y78100D02*
D03*
X66300Y77100D02*
D03*
X96500Y80100D02*
D03*
X80400Y93200D02*
D03*
X94500Y102300D02*
D03*
X93800Y118500D02*
D03*
X84300Y131400D02*
D03*
X84100Y126000D02*
D03*
X104000Y138400D02*
D03*
X110200Y138200D02*
D03*
X112700Y144600D02*
D03*
X105700Y144000D02*
D03*
X99400Y143900D02*
D03*
X92900Y144300D02*
D03*
X85500Y144200D02*
D03*
X76600Y144100D02*
D03*
X69800Y144300D02*
D03*
X26100Y132600D02*
D03*
X30700Y134300D02*
D03*
X22100Y134200D02*
D03*
X34800Y139200D02*
D03*
X27700Y139100D02*
D03*
X20900Y139000D02*
D03*
X11800Y139200D02*
D03*
X5800Y138800D02*
D03*
X15400Y137000D02*
D03*
X15100Y130900D02*
D03*
X15200Y124900D02*
D03*
X15400Y83600D02*
D03*
X23300Y95500D02*
D03*
X23600Y101000D02*
D03*
X23300Y89900D02*
D03*
X33200Y91000D02*
D03*
Y96200D02*
D03*
X70500Y34700D02*
D03*
X77500Y34200D02*
D03*
X85200Y30800D02*
D03*
X82200Y26100D02*
D03*
X80200Y21500D02*
D03*
X109900Y18000D02*
D03*
X111500Y25600D02*
D03*
X111600Y30500D02*
D03*
X110000Y13700D02*
D03*
X103400Y13600D02*
D03*
X109900Y8500D02*
D03*
X103800Y8700D02*
D03*
X109500Y2600D02*
D03*
X103700D02*
D03*
X95200Y2500D02*
D03*
Y7500D02*
D03*
Y12000D02*
D03*
X91200D02*
D03*
Y7500D02*
D03*
Y2500D02*
D03*
X80400Y8500D02*
D03*
X80200Y15100D02*
D03*
X74900Y14900D02*
D03*
X51000Y7400D02*
D03*
X57300D02*
D03*
X64000D02*
D03*
X67500Y3100D02*
D03*
X60600D02*
D03*
X54300D02*
D03*
X48200D02*
D03*
X24700Y5300D02*
D03*
X24500Y8900D02*
D03*
X24600Y11700D02*
D03*
X20500Y11800D02*
D03*
Y5200D02*
D03*
X10600Y11800D02*
D03*
X5600Y3800D02*
D03*
X10400Y6200D02*
D03*
X5800Y8500D02*
D03*
X5900Y13500D02*
D03*
X35700Y14000D02*
D03*
X20400Y8800D02*
D03*
X25900Y16800D02*
D03*
X21300Y16900D02*
D03*
X46200Y59000D02*
D03*
Y83900D02*
D03*
Y76600D02*
D03*
X31700Y149700D02*
D03*
X65700Y33800D02*
D03*
X55800D02*
D03*
X62600Y123800D02*
D03*
X66600Y129500D02*
D03*
X86800Y138300D02*
D03*
X74000Y89000D02*
D03*
X92000Y77000D02*
D03*
X90500Y80100D02*
D03*
X67900Y67400D02*
D03*
X45000Y105200D02*
D03*
X55800Y83800D02*
D03*
X89800Y20400D02*
D03*
X94900Y53800D02*
D03*
X90500Y63500D02*
D03*
X85800Y38300D02*
D03*
X32000Y76500D02*
D03*
X51900Y33700D02*
D03*
X10500Y27000D02*
D03*
X17600Y73900D02*
D03*
Y67100D02*
D03*
X46200Y68600D02*
D03*
X23500Y77300D02*
D03*
X28700Y69500D02*
D03*
X95800Y29100D02*
D03*
X46079Y49179D02*
D03*
X71300Y78900D02*
D03*
X63500Y70100D02*
D03*
X76500Y61086D02*
D03*
X79000D02*
D03*
X81500D02*
D03*
X58100Y61400D02*
D03*
X77300Y78900D02*
D03*
X79100Y74600D02*
D03*
X97800Y67000D02*
D03*
X51500Y42986D02*
D03*
X71600Y41000D02*
D03*
X67700Y43700D02*
D03*
X97900Y45500D02*
D03*
X89700Y42800D02*
D03*
X97100Y61100D02*
D03*
X62058Y91309D02*
D03*
X60000Y93000D02*
D03*
X92000Y94500D02*
D03*
X66024Y91333D02*
D03*
X72500Y94000D02*
D03*
X74900Y78900D02*
D03*
X86600Y54800D02*
D03*
X99500Y57000D02*
D03*
X51300Y16800D02*
D03*
X51000Y20700D02*
D03*
X53700Y15700D02*
D03*
X58000Y15600D02*
D03*
X64100Y19400D02*
D03*
X62800Y15600D02*
D03*
X48551Y19200D02*
D03*
X67449Y19600D02*
D03*
X75500Y30700D02*
D03*
X54800Y18953D02*
D03*
X52528Y19000D02*
D03*
X58800Y19300D02*
D03*
X61072D02*
D03*
X60500Y40300D02*
D03*
X71000Y19500D02*
D03*
X23500Y107500D02*
D03*
X86000Y13500D02*
D03*
X103000Y18000D02*
D03*
X44500Y29500D02*
D03*
X29000Y14500D02*
D03*
X32500Y17500D02*
D03*
X45900Y40200D02*
D03*
X67500Y63500D02*
D03*
X39000Y76500D02*
D03*
X86500Y79500D02*
D03*
X64000Y85000D02*
D03*
X52000Y84000D02*
D03*
X56800Y131500D02*
D03*
X5400Y146000D02*
D03*
X11500Y146500D02*
D03*
X15117Y146406D02*
D03*
X34000Y146500D02*
D03*
X30000D02*
D03*
X26000D02*
D03*
X22600Y146700D02*
D03*
X18600Y146400D02*
D03*
X38000Y146500D02*
D03*
X4000Y143000D02*
D03*
X28000D02*
D03*
X24500D02*
D03*
X20500D02*
D03*
X16500D02*
D03*
X12500D02*
D03*
X8500D02*
D03*
X50883Y143094D02*
D03*
X47383D02*
D03*
X43383D02*
D03*
X39383D02*
D03*
X35383D02*
D03*
X31383D02*
D03*
X8600Y148200D02*
D03*
X13500Y149000D02*
D03*
X109600Y148500D02*
D03*
X104600Y148600D02*
D03*
X101000D02*
D03*
X96500Y148700D02*
D03*
X92000Y149500D02*
D03*
X20500Y148600D02*
D03*
X28000Y149500D02*
D03*
X36000D02*
D03*
X88000D02*
D03*
X84000D02*
D03*
X80000D02*
D03*
X76000D02*
D03*
X72000D02*
D03*
X68000D02*
D03*
X64000D02*
D03*
X60000D02*
D03*
X56000D02*
D03*
X52000D02*
D03*
X48000D02*
D03*
X44000D02*
D03*
X42000Y147000D02*
D03*
X46000D02*
D03*
X50000D02*
D03*
X54000D02*
D03*
X58000D02*
D03*
X61500D02*
D03*
X63500Y144500D02*
D03*
Y141500D02*
D03*
X53500D02*
D03*
X63500Y130500D02*
D03*
X63700Y127700D02*
D03*
X68600Y127300D02*
D03*
X71300Y125600D02*
D03*
X71600Y121900D02*
D03*
X48500Y118500D02*
D03*
X60000Y121500D02*
D03*
X54500Y128500D02*
D03*
X81000Y133000D02*
D03*
Y130000D02*
D03*
X89500Y120000D02*
D03*
X84000D02*
D03*
X81000D02*
D03*
X92500Y111000D02*
D03*
X87000D02*
D03*
X83000D02*
D03*
X81500Y102500D02*
D03*
X50500Y128500D02*
D03*
X39500D02*
D03*
X75000Y118500D02*
D03*
X35914Y106500D02*
D03*
X39328Y113000D02*
D03*
X72000Y119000D02*
D03*
X75500Y121500D02*
D03*
X70500Y89000D02*
D03*
X68000Y93000D02*
D03*
X78500Y121500D02*
D03*
X81000Y113500D02*
D03*
X73217Y96283D02*
D03*
X42500Y113000D02*
D03*
X33000Y128500D02*
D03*
X26500D02*
D03*
X20000D02*
D03*
X81500Y63500D02*
D03*
X76500D02*
D03*
X79000D02*
D03*
X81500Y66000D02*
D03*
X79000D02*
D03*
X76500D02*
D03*
X74000Y91500D02*
D03*
X64000Y93000D02*
D03*
X102500Y57000D02*
D03*
X48000Y101000D02*
D03*
X50000Y107000D02*
D03*
X48000Y105000D02*
D03*
X49969Y102745D02*
D03*
X50000Y99000D02*
D03*
X48834Y110960D02*
D03*
X50323Y112928D02*
D03*
X58000Y119000D02*
D03*
X59800Y124000D02*
D03*
X91500Y113500D02*
D03*
X86500D02*
D03*
X68000Y122000D02*
D03*
X68262Y118963D02*
D03*
X64000Y121500D02*
D03*
X61968Y118984D02*
D03*
X66000Y118500D02*
D03*
X56000Y121500D02*
D03*
X6000Y20500D02*
D03*
X97000Y132500D02*
D03*
X90500Y123500D02*
D03*
X94000D02*
D03*
D82*
X30500Y50600D02*
D03*
X24400D02*
D03*
X36400D02*
D03*
Y43500D02*
D03*
X30500D02*
D03*
X24400D02*
D03*
X30500Y30500D02*
D03*
X24500D02*
D03*
X36500D02*
D03*
X63000Y106000D02*
D03*
X59000Y101500D02*
D03*
X67000D02*
D03*
Y110000D02*
D03*
X59000D02*
D03*
M02*
