M48
;Layer_Color=9474304
;FILE_FORMAT=2:5
INCH,LZ
;TYPE=PLATED
T01F00S00C0.00787
T03F00S00C0.02800
T04F00S00C0.04331
%
T01
X00056Y00038
X00058Y00085
X00059Y00135
X00106Y00118
X00104Y00062
X00205Y00052
X00204Y00088
X00205Y00118
X00246Y00117
X00245Y00089
X00247Y00053
X00349Y00036
X00359Y00085
X00357Y0014
X00325Y00175
X0029Y00145
X00259Y00168
X00213Y00169
X00176Y00302
X00105Y0027
X00065Y00309
X0006Y00205
X00167Y00405
X00171Y00475
X00173Y00557
X00175Y00612
X00176Y00671
Y00739
X00235Y00773
X0026Y00779
X00235Y00823
X00233Y00899
Y00955
X00236Y0101
X00235Y01075
X0035914Y01065
X0039328Y0113
X00425
X0050323Y0112928
X0048834Y011096
X005Y0107
X0048Y0105
X0045Y01052
X0048Y0101
X0049969Y0102745
X005Y0099
X0052Y0084
X00462Y00839
X00398Y00832
X0039Y00765
X00351Y00783
X0032Y00765
X00287Y00695
X00266Y00665
X00337Y00656
X00359Y00591
X00462Y0059
X00461Y00632
X00462Y00686
Y00766
X00332Y0091
Y00962
X00121Y00946
X00034Y00941
X00035Y0084787
X00154Y00836
X00121Y01048
X00051Y01047
X0046079Y0049179
X00459Y00402
X00515Y0042986
X00519Y00337
X00445Y00295
X0048551Y00192
X0051Y00207
X0052528Y0019
X00513Y00168
X00537Y00157
X0051Y00074
X00482Y00031
X00534Y00545
X00581Y00614
X00675Y00635
X00679Y00674
X00672Y00715
X00635Y00701
X00663Y00771
X00713Y00789
X00749
X00773
X00791Y00746
X0079Y0066
Y00635
Y0061086
X00765
Y00635
Y0066
X00815
Y00635
Y0061086
X00866Y00548
X00949Y00538
X00995Y0057
X01025
X00971Y00611
X00978Y0067
X01052Y00642
X01114Y00646
X01121Y00744
X01056Y0074
X01054Y0085
X01119Y00844
X01123Y00954
X01058Y00949
X0104268Y0104437
X0112Y01041
X00945Y01023
X00948Y00933
X0092Y00945
X00945Y00859
X00965Y00801
X00905
X0092Y0077
X00865Y00795
X00871Y00727
X00853Y00706
X00905Y00635
X00897Y00428
X00858Y00383
X00852Y00308
X00822Y00261
X00802Y00215
Y00151
X00749Y00149
X0071Y00195
X0067449Y00196
X00641Y00194
X0061072Y00193
X00588
X00548Y0018953
X0058Y00156
X00628
X0064Y00074
X00573
X00543Y00031
X00606
X00675
X00803Y00029
X00804Y00085
X0086Y00135
X00912Y0012
X00952
Y00075
X00912
Y00025
X00952
X01037Y00026
X01095
X01099Y00085
X011Y00137
X01099Y0018
X0103
X01034Y00136
X01038Y00087
X0104062Y0029475
X01116Y00305
X01115Y00256
X00958Y00291
X01007Y00387
X00979Y00455
X00713Y00464
X00716Y0041
X00677Y00437
X00605Y00403
X00558Y00338
X00657
X00705Y00347
X00775Y00342
X00755Y00307
X00898Y00204
X00687Y00545
X00596Y00781
X00558Y00838
X0064Y0085
Y0093
X0062058Y0091309
X006Y0093
X0066024Y0091333
X0068Y0093
X00725Y0094
X0073217Y0096283
X0074Y00915
Y0089
X00705
X00804Y00932
X00815Y01025
X0083Y0111
X0087
X00925
X00915Y01135
X00865
X0081
Y012
X0084
X00895
X00905Y01235
X0094
X00938Y01185
X0105Y0114
X01121Y01144
X01119Y01244
X01046Y01242
X0104Y01384
X01102Y01382
X01127Y01446
X01096Y01485
X01046Y01486
X0101
X00965Y01487
X0092Y01495
X0088
X0084
X008
X0076
X0072
X0068
X0064
X006
X0056
X0054Y0147
X0058
X00615
X00635Y01445
Y01415
X00698Y01443
X00766Y01441
X00855Y01442
X00868Y01383
X00843Y01314
X0081Y013
Y0133
X00841Y0126
X00785Y01215
X00755
X0075Y01185
X0072Y0119
X00716Y01219
X0068Y0122
X0068262Y0118963
X0066Y01185
X0061968Y0118984
X0058Y0119
X006Y01215
X00598Y0124
X00626Y01238
X0064Y01215
X00637Y01277
X00635Y01305
X00666Y01295
X00686Y01273
X00713Y01256
X0056Y01215
X00545Y01285
X00568Y01315
X0097Y01325
X00994Y01439
X01057Y0144
X00929Y01443
X00535Y01415
X0050883Y0143094
X0047383
X0043383
X0039383
X0035383
X0031383
X0028Y0143
X00245
X00205
X00165
X00125
X00085
X0004
X00054Y0146
X00086Y01482
X00115Y01465
X0015117Y0146406
X00186Y01464
X00205Y01486
X00226Y01467
X0026Y01465
X003
X0034
X0038
X0042Y0147
X0046
X005
X0052Y01495
X0048
X0044
X0036
X00317Y01497
X0028Y01495
X00277Y01391
X00209Y0139
X00221Y01342
X00261Y01326
X00265Y01285
X0033
X00361Y01311
X00351Y01352
X00348Y01392
X00307Y01343
X00419Y01322
X00426Y01368
X00459Y01342
X00499Y01313
X00532
X00505Y01285
X00526Y01245
X00533Y01187
X00485Y01185
X00357Y01182
X00301Y01187
X00184Y01163
X00118Y01149
X0005Y01146
X00032Y01263
X00152Y01249
X00151Y01309
X00154Y0137
X00118Y01392
X00058Y01388
X00135Y0149
X002Y01285
X00395
T03
X00245Y00305
X00305
X00365
X00364Y00435
X00305
X00244
Y00506
X00305
X00364
X0059Y01015
X0067
X0063Y0106
X0067Y011
X0059
T04
X00085Y00395
Y00495
Y00595
Y00695
Y00795
Y00895
Y00995
Y01095
X01085
Y00995
Y00895
Y00795
Y00695
Y00595
Y00495
Y00395
Y01195
Y01295
X00085
Y01195
M30
