G04*
G04 #@! TF.GenerationSoftware,Altium Limited,Altium Designer,24.6.1 (21)*
G04*
G04 Layer_Color=8388736*
%FSLAX25Y25*%
%MOIN*%
G70*
G04*
G04 #@! TF.SameCoordinates,68DEAC84-C44A-45A5-B390-26DD8049327B*
G04*
G04*
G04 #@! TF.FilePolarity,Negative*
G04*
G01*
G75*
%ADD21R,0.01900X0.04775*%
%ADD26R,0.02600X0.03900*%
%ADD27R,0.00806X0.02003*%
%ADD28R,0.02003X0.00806*%
%ADD31R,0.01900X0.02200*%
%ADD33R,0.03900X0.02600*%
%ADD36R,0.12200X0.05750*%
%ADD37R,0.03300X0.05750*%
%ADD39R,0.01003X0.02981*%
%ADD40R,0.02981X0.01003*%
%ADD45R,0.01968X0.19302*%
%ADD46R,0.03543X0.19291*%
%ADD47R,0.01968X0.17480*%
%ADD48R,0.10630X0.01968*%
%ADD49R,0.01968X0.12362*%
%ADD50R,0.11811X0.01968*%
%ADD51R,0.19685X0.01968*%
%ADD52R,0.03543X0.03347*%
G04:AMPARAMS|DCode=53|XSize=38.98mil|YSize=16.54mil|CornerRadius=4.28mil|HoleSize=0mil|Usage=FLASHONLY|Rotation=90.000|XOffset=0mil|YOffset=0mil|HoleType=Round|Shape=RoundedRectangle|*
%AMROUNDEDRECTD53*
21,1,0.03898,0.00797,0,0,90.0*
21,1,0.03041,0.01654,0,0,90.0*
1,1,0.00856,0.00399,0.01521*
1,1,0.00856,0.00399,-0.01521*
1,1,0.00856,-0.00399,-0.01521*
1,1,0.00856,-0.00399,0.01521*
%
%ADD53ROUNDEDRECTD53*%
G04:AMPARAMS|DCode=54|XSize=38.98mil|YSize=16.54mil|CornerRadius=4.28mil|HoleSize=0mil|Usage=FLASHONLY|Rotation=0.000|XOffset=0mil|YOffset=0mil|HoleType=Round|Shape=RoundedRectangle|*
%AMROUNDEDRECTD54*
21,1,0.03898,0.00797,0,0,0.0*
21,1,0.03041,0.01654,0,0,0.0*
1,1,0.00856,0.01521,-0.00399*
1,1,0.00856,-0.01521,-0.00399*
1,1,0.00856,-0.01521,0.00399*
1,1,0.00856,0.01521,0.00399*
%
%ADD54ROUNDEDRECTD54*%
%ADD55R,0.08465X0.08465*%
%ADD56R,0.01673X0.05028*%
%ADD57R,0.02823X0.05028*%
%ADD58R,0.03740X0.02953*%
%ADD59R,0.03740X0.07284*%
%ADD60R,0.03465X0.02598*%
%ADD61R,0.03858X0.03071*%
%ADD62R,0.14800X0.14800*%
%ADD63R,0.02953X0.02717*%
%ADD64R,0.02717X0.02953*%
%ADD65R,0.02526X0.02368*%
%ADD66R,0.02368X0.02526*%
%ADD67R,0.06600X0.07093*%
%ADD68C,0.07093*%
%ADD69O,0.04437X0.07587*%
%ADD70O,0.04437X0.09161*%
D21*
X36000Y82847D02*
D03*
X31000D02*
D03*
X26000D02*
D03*
X21000D02*
D03*
Y111153D02*
D03*
X26000D02*
D03*
X31000D02*
D03*
X36000D02*
D03*
D26*
X32450Y21500D02*
D03*
X25550D02*
D03*
D27*
X54000Y44300D02*
D03*
X56500D02*
D03*
D28*
X63600Y31300D02*
D03*
Y33800D02*
D03*
X57800Y31300D02*
D03*
Y33800D02*
D03*
D31*
X87800Y107500D02*
D03*
X84200D02*
D03*
D33*
X92000Y29050D02*
D03*
Y35950D02*
D03*
D36*
X30500Y37925D02*
D03*
D37*
X21400Y62075D02*
D03*
X30500D02*
D03*
X39600D02*
D03*
D39*
X69890Y115641D02*
D03*
X67921D02*
D03*
X65953D02*
D03*
X63984D02*
D03*
X62016D02*
D03*
X60047D02*
D03*
X58079D02*
D03*
X56110D02*
D03*
Y96359D02*
D03*
X58079D02*
D03*
X60047D02*
D03*
X62016D02*
D03*
X63984D02*
D03*
X65953D02*
D03*
X67921D02*
D03*
X69890D02*
D03*
D40*
X53360Y112890D02*
D03*
Y110921D02*
D03*
Y108953D02*
D03*
Y106984D02*
D03*
Y105016D02*
D03*
Y103047D02*
D03*
Y101079D02*
D03*
Y99110D02*
D03*
X72641D02*
D03*
Y101079D02*
D03*
Y103047D02*
D03*
Y105016D02*
D03*
Y106984D02*
D03*
Y108953D02*
D03*
Y110921D02*
D03*
Y112890D02*
D03*
D45*
X40001Y160635D02*
D03*
D46*
X31705Y160640D02*
D03*
D47*
X85642Y161546D02*
D03*
D48*
X81312Y169302D02*
D03*
X62808Y169302D02*
D03*
D49*
X76981Y164105D02*
D03*
X67139D02*
D03*
X48635D02*
D03*
X58477D02*
D03*
D50*
X72060Y158908D02*
D03*
X53556D02*
D03*
D51*
X39776Y169302D02*
D03*
D52*
X90158Y102469D02*
D03*
X84842D02*
D03*
Y98532D02*
D03*
X90158D02*
D03*
D53*
X75063Y55882D02*
D03*
X77031D02*
D03*
X79000D02*
D03*
X80968D02*
D03*
X82937D02*
D03*
Y71118D02*
D03*
X80968D02*
D03*
X79000D02*
D03*
X77031D02*
D03*
X75063D02*
D03*
D54*
X71382Y67437D02*
D03*
Y65469D02*
D03*
Y63500D02*
D03*
Y61532D02*
D03*
Y59563D02*
D03*
X86618D02*
D03*
Y61532D02*
D03*
Y63500D02*
D03*
Y65469D02*
D03*
Y67437D02*
D03*
D55*
X79000Y63500D02*
D03*
D56*
X57016Y24484D02*
D03*
X58984D02*
D03*
X60953D02*
D03*
X55047D02*
D03*
X53079D02*
D03*
X62921D02*
D03*
X64890D02*
D03*
X51110D02*
D03*
D57*
X48551D02*
D03*
X67449D02*
D03*
X70598D02*
D03*
X45402D02*
D03*
D58*
X55500Y75980D02*
D03*
Y68500D02*
D03*
X47547Y72240D02*
D03*
X50524Y50260D02*
D03*
Y57740D02*
D03*
X58476Y54000D02*
D03*
D59*
X86114Y8500D02*
D03*
X99500D02*
D03*
X29193Y8500D02*
D03*
X15807D02*
D03*
D60*
X70500Y135689D02*
D03*
Y139311D02*
D03*
X60500Y136811D02*
D03*
Y133189D02*
D03*
D61*
X52100Y31272D02*
D03*
Y40328D02*
D03*
D62*
X63000Y106000D02*
D03*
D63*
X89000Y49000D02*
D03*
Y45598D02*
D03*
X94500Y49000D02*
D03*
Y45598D02*
D03*
X45900Y33798D02*
D03*
Y37200D02*
D03*
X63500Y54500D02*
D03*
Y51098D02*
D03*
Y66500D02*
D03*
Y63098D02*
D03*
X17500Y24000D02*
D03*
Y20598D02*
D03*
X90500Y88000D02*
D03*
Y84598D02*
D03*
X85000Y88000D02*
D03*
Y84598D02*
D03*
X26500Y125000D02*
D03*
Y121598D02*
D03*
X33000Y125000D02*
D03*
Y121598D02*
D03*
X39500Y125000D02*
D03*
Y121598D02*
D03*
X20000Y125000D02*
D03*
Y121598D02*
D03*
X46000Y125000D02*
D03*
Y121598D02*
D03*
X83000Y46661D02*
D03*
Y50063D02*
D03*
X76500Y46661D02*
D03*
Y50063D02*
D03*
D64*
X69498Y30800D02*
D03*
X72900D02*
D03*
X86402Y76000D02*
D03*
X83000D02*
D03*
X92000Y67000D02*
D03*
X95402D02*
D03*
Y72500D02*
D03*
X92000D02*
D03*
X93902Y132500D02*
D03*
X90500D02*
D03*
X93902Y127000D02*
D03*
X90500D02*
D03*
X90000Y18000D02*
D03*
X86598D02*
D03*
X99098Y24500D02*
D03*
X102500D02*
D03*
D65*
X64600Y40393D02*
D03*
Y43700D02*
D03*
X32000Y72807D02*
D03*
Y69500D02*
D03*
X39000Y72807D02*
D03*
Y69500D02*
D03*
X77029Y136007D02*
D03*
Y139313D02*
D03*
X84000Y113693D02*
D03*
Y117000D02*
D03*
X89500D02*
D03*
Y113693D02*
D03*
X45000Y112807D02*
D03*
Y109500D02*
D03*
X10500Y23807D02*
D03*
Y20500D02*
D03*
X83057Y136083D02*
D03*
Y139390D02*
D03*
X78500Y117000D02*
D03*
Y113693D02*
D03*
D66*
X94807Y56000D02*
D03*
X91500D02*
D03*
X94807Y61000D02*
D03*
X91500D02*
D03*
X85807Y41000D02*
D03*
X82500D02*
D03*
X73993D02*
D03*
X77300D02*
D03*
X71500Y76000D02*
D03*
X74807D02*
D03*
X20193Y68500D02*
D03*
X23500D02*
D03*
X20193Y74000D02*
D03*
X23500D02*
D03*
X73807Y130000D02*
D03*
X70500D02*
D03*
X57193Y128500D02*
D03*
X60500D02*
D03*
X57193Y141500D02*
D03*
X60500D02*
D03*
X96307Y107500D02*
D03*
X93000D02*
D03*
X88307Y93500D02*
D03*
X85000D02*
D03*
X51177Y88000D02*
D03*
X54484D02*
D03*
X63984D02*
D03*
X60677D02*
D03*
X99807Y18000D02*
D03*
X96500D02*
D03*
D67*
X8500Y39500D02*
D03*
X108500D02*
D03*
D68*
X8500Y49500D02*
D03*
Y59500D02*
D03*
Y69500D02*
D03*
Y79500D02*
D03*
Y89500D02*
D03*
Y99500D02*
D03*
Y109500D02*
D03*
Y119500D02*
D03*
Y129500D02*
D03*
X108500Y49500D02*
D03*
Y59500D02*
D03*
Y69500D02*
D03*
Y79500D02*
D03*
Y89500D02*
D03*
Y99500D02*
D03*
Y109500D02*
D03*
Y119500D02*
D03*
Y129500D02*
D03*
D69*
X75008Y22220D02*
D03*
X40992D02*
D03*
D70*
X75008Y6472D02*
D03*
X40992D02*
D03*
M02*
