G04*
G04 #@! TF.GenerationSoftware,Altium Limited,Altium Designer,24.6.1 (21)*
G04*
G04 Layer_Color=16711935*
%FSLAX25Y25*%
%MOIN*%
G70*
G04*
G04 #@! TF.SameCoordinates,68DEAC84-C44A-45A5-B390-26DD8049327B*
G04*
G04*
G04 #@! TF.FilePolarity,Positive*
G04*
G01*
G75*
%ADD11C,0.00600*%
D11*
X93086Y152414D02*
G03*
X96500Y151000I3414J3414D01*
G01*
X91500Y156243D02*
G03*
X93086Y152414I5414J0D01*
G01*
X23914D02*
G03*
X25500Y156243I-3828J3828D01*
G01*
X20500Y151000D02*
G03*
X23914Y152414I0J4828D01*
G01*
X93086D02*
G03*
X96500Y151000I3414J3414D01*
G01*
X91500Y156243D02*
G03*
X93086Y152414I5414J0D01*
G01*
X23914D02*
G03*
X25500Y156243I-3828J3828D01*
G01*
X20500Y151000D02*
G03*
X23914Y152414I0J4828D01*
G01*
X93086D02*
G03*
X96500Y151000I3414J3414D01*
G01*
X91500Y156243D02*
G03*
X93086Y152414I5414J0D01*
G01*
X23914D02*
G03*
X25500Y156243I-3828J3828D01*
G01*
X20500Y151000D02*
G03*
X23914Y152414I0J4828D01*
G01*
X93086D02*
G03*
X96500Y151000I3414J3414D01*
G01*
X91500Y156243D02*
G03*
X93086Y152414I5414J0D01*
G01*
X23914D02*
G03*
X25500Y156243I-3828J3828D01*
G01*
X20500Y151000D02*
G03*
X23914Y152414I0J4828D01*
G01*
X25500Y172000D02*
X26500Y173000D01*
X25500Y172000D02*
X26500Y173000D01*
X90000D02*
X91500Y171500D01*
X26500Y173000D02*
X90000Y173000D01*
X25500Y171500D02*
Y172000D01*
X91500Y168500D02*
Y171500D01*
X25500Y168500D02*
Y171500D01*
X91500Y156243D02*
Y168500D01*
Y156243D02*
Y168500D01*
X25500Y156243D02*
Y168500D01*
X17500Y0D02*
X99500D01*
X91500Y156243D02*
Y168500D01*
X25500Y156243D02*
Y168500D01*
X96500Y151000D02*
X104500D01*
X12500D02*
X20500D01*
X91500Y156243D02*
Y168500D01*
X25500Y156243D02*
Y168500D01*
X5000Y151000D02*
X12500D01*
X500Y146500D02*
X5000Y151000D01*
X500Y4000D02*
Y146500D01*
Y4000D02*
X4500Y0D01*
X17500D01*
X99500D02*
X112500D01*
X116500Y4000D01*
Y146500D01*
X112000Y151000D02*
X116500Y146500D01*
X104500Y151000D02*
X112000D01*
X96500D02*
X104500D01*
X12500D02*
X20500D01*
X25500Y156243D02*
Y168500D01*
M02*
